<svg xmlns="http://www.w3.org/2000/svg" width="452.962" height="452.971" viewBox="0 0 452.962 452.971"><path d="M226.5,0h2.947l.526.007c.031,0,.054,0,.085,0h.263l.092,0,.089,0,.094,0,.09,0,.093,0,.089,0,.095,0,.092,0,.091,0h.185l.092,0,.093,0,.091,0,.093,0,.094,0h.017l.075,0h.016l.075,0h.017l.089,0,.086,0c.031,0,.055,0,.087,0l.094,0q3.085.078,6.147.238l-.1,2C234.456,2.1,230.455,2,226.5,2V0Zm23.959,1.252q4.724.5,9.388,1.185h0l.068.01.023,0L260,2.46l.032,0,.051.008.041.006.045.007.048.007.037.006.056.008.032,0,.06.009.028,0,.066.01.023,0,.071.011.018,0,.078.012.012,0,.085.013h0q.784.119,1.567.244L262.041,4.8c-3.895-.619-7.862-1.143-11.791-1.556l.209-1.989Zm23.691,3.769q1.379.3,2.752.607l.008,0,.08.018.017,0,.07.016.026.006.063.014.029.007.059.013.033.007.057.013.034.008.052.012.039.009.048.011.041.01.046.011.043.01.041.009.05.012.017,0,.323.075h0l.077.018.01,0,.075.018.012,0,.071.017.016,0,.073.017.012,0L278.5,6l.009,0,.078.018.007,0,.079.019.007,0c.8.188,1.588.379,2.383.576h0l.083.02h0l.082.02h0l.082.02h0l.084.021h0l.845.212h.005l.078.02.009,0,.073.019.015,0,.071.018.015,0,.07.018.017,0,.07.018.016,0,.07.018.017,0,.071.018.01,0,.077.02h0l.5.128.009,0,.073.019.014,0,.069.018.017,0,.067.017.02.005.063.016.026.007.061.016.024.006.063.016.023.006.065.017.018,0,.067.018.018,0,.071.019.006,0,.08.021h0l.505.134h0l.08.021h0l.078.021.008,0,.079.021h.005l.077.021.01,0,.077.021.006,0,.08.022h0l.5.136-.522,1.931c-3.808-1.031-7.7-1.972-11.557-2.8ZM297.3,11.287q1.991.655,3.969,1.346l.006,0,.073.026.011,0,.069.024.017.006.067.023.015.005.067.023.018.007.065.023.019.007.063.022.025.009.059.021.016.006.205.072.027.01.05.018.034.012.049.017.036.013.046.016.042.015.039.014.047.017.04.014.044.016.04.014.046.016.039.014.049.017.035.012.053.019.033.012.059.021.025.009.076.027.009,0,.263.095h0l.082.03.011,0,.076.028.011,0,.075.027.014,0,.074.027.013,0,.075.027.011,0,.08.029,0,0q2.422.879,4.818,1.811l-.725,1.864c-3.679-1.431-7.446-2.782-11.195-4.015Zm22.358,8.7q3.765,1.7,7.456,3.535l0,0,.077.038.007,0,.072.036.013.006.07.035.012.006.068.034.015.008.072.036.009,0,.163.081.032.016.046.023.045.023.034.017.048.024.03.015.052.026.027.013.054.027.023.012.059.03.015.008.065.033.01,0q1.111.559,2.217,1.132l-.919,1.776c-3.507-1.815-7.108-3.559-10.7-5.183Zm21.3,11.025q5.186,3.043,10.185,6.345l-1.1,1.669c-3.3-2.176-6.692-4.292-10.095-6.289l1.012-1.725ZM360.986,44.23q3.182,2.352,6.284,4.816l0,0,.063.05,0,0,.064.051h0l.393.313.006,0,.056.045.014.011.051.04.02.016.049.039.019.016.048.039.02.016.05.04.016.012.052.041.018.015.166.133.019.015.037.03.034.028.034.027.035.028.035.028.036.029.034.027.035.029.034.027.039.032.029.023.044.035.025.021.052.042.017.014.213.172.014.012.056.045.019.015.051.041.022.018.05.04.019.015.053.043.017.014.059.048.01.008.063.051.009.008.36.294,0,0,.069.057,0,0,.07.057h0l.07.058,0,0,.288.237-1.272,1.543c-3.047-2.511-6.2-4.973-9.375-7.319l1.189-1.608ZM379.5,59.485q2.349,2.153,4.637,4.371l0,0,.062.06.006.005.06.059.007.007.058.056.009.009.057.056.009.009.265.258,0,0,.061.06.009.009.054.053.016.016.048.047.02.019.043.042.023.022L385,64.7l.021.021.044.043.021.021.048.047.017.016.128.126.023.023.041.04.028.028.035.035.03.029.034.033.032.032.03.03.033.033.03.03.034.033.03.03.032.032.03.03.035.035.019.019.159.158.005.005.053.052.009.009.048.048.016.016.045.045.017.017.043.043.02.02.044.044.015.015.047.047.013.013.05.05,0,0,.293.292.007.007.054.054.006.006.055.055.006.006.057.057h0l.059.059h0c.41.411.822.828,1.229,1.242l-1.427,1.4c-2.766-2.817-5.643-5.6-8.553-8.264ZM396.306,76.6q.4.456.8.915h0l.057.065.012.014.047.054.016.018.042.048.019.022.042.048.018.02.041.047.019.022.042.048.018.02.05.057.009.01.059.068.013.015.045.052.023.027.035.04.025.029.033.038.029.033.029.033.03.034.029.033.031.036.025.029.033.038.023.027.037.042.014.017.258.3.01.012.045.052.012.014.043.05.016.019.042.049.012.014.044.052.013.015.045.052.008.01.049.057,0,0,.274.32h0l.05.059.007.009.049.058.007.008.048.056.009.011.049.058,0,0,.38.448.005.006.05.06,0,.005.05.059.006.007.051.061v0l.054.064h0q.52.617,1.036,1.237h0l.052.063,0,0,.485.586h0c.9,1.093,1.8,2.2,2.678,3.311l-1.567,1.243c-2.453-3.091-5.023-6.159-7.637-9.118Zm14.913,18.79.027.038.018.025.034.047.017.025.034.049.016.023.035.049.016.023.036.05.014.02.037.052.012.016.041.058v0l.243.345v0l.046.066,0,0,.044.063.006.009.043.062.006.008.044.063L412,96.5q3.058,4.356,5.911,8.853l-1.689,1.071c-2.113-3.332-4.345-6.653-6.633-9.871Zm12.848,20.258q1.216,2.162,2.385,4.353v0l.042.078,0,.006.04.075,0,.007.039.073.005.01.172.324.014.027.028.053.017.033.023.044.022.042.019.035.025.048.015.028.027.051.015.028.028.053.011.02.031.059.008.014c.895,1.7,1.775,3.424,2.628,5.149l-1.793.886c-1.748-3.537-3.616-7.076-5.552-10.518Zm10.63,21.505q2.2,5.112,4.147,10.351l0,.006.029.077.006.017.026.069.007.019.024.065.009.024.023.061.01.026.022.059.01.028.021.057.011.03.018.05.014.037.013.037.049.134-1.877.69c-1.362-3.7-2.843-7.42-4.4-11.047Zm8.282,22.514c.528,1.712,1.035,3.427,1.523,5.157v0l.023.082h0c.071.252.14.5.211.752l0,.005.02.073,0,.014.018.066.006.022.017.062.007.024.017.062.007.025.017.062.006.023.017.063.007.025.017.062.006.022.018.064.006.022.017.064.006.021.018.065,0,.013.063.232,0,.01.017.061.007.026.015.057.008.031.015.054.009.032.015.054.009.034.013.049.011.04.013.048.011.039.013.048.01.039.013.05.01.036.014.051.009.034.015.055.007.028.016.059.006.022.085.317v0l.019.071,0,.016.017.064.006.023.018.067,0,.017.018.067.005.02.018.066.005.019.017.065.006.023.018.066,0,.015.019.073,0,.009c.221.839.434,1.671.646,2.514l-1.94.486c-.96-3.829-2.037-7.683-3.2-11.455l1.911-.589Zm5.836,23.269,0,.02.013.065.006.031.011.058.007.035.011.054.007.036.01.053.008.039.01.05.008.039.01.051.008.04.009.049.008.042.009.046.009.046.008.041.009.048.008.04.01.05.007.038.01.051.007.035.011.056.005.028.012.061,0,.023.077.408v.007l.013.068,0,.022.013.067,0,.02.012.064,0,.026.011.062,0,.027.011.059.006.031.011.06,0,.027.012.063,0,.025.012.064,0,.025.012.063,0,.027.011.062,0,.024.012.066,0,.021.012.068,0,.018.013.072,0,.009c.032.174.061.337.092.511v0l.014.076,0,.014.012.067,0,.024.011.063,0,.027.011.063,0,.025.011.064,0,.025.011.062,0,.028.011.063,0,.024.011.065,0,.024.011.065,0,.023.012.066,0,.023.012.067,0,.016.013.074v.007c.03.174.06.342.09.517h0l.014.081v.007l.013.073,0,.017.012.072,0,.017.012.068,0,.023.011.064,0,.024.011.065,0,.025.011.066,0,.02.011.067,0,.024.011.066,0,.02.012.068,0,.021.012.069,0,.014.013.075,0,.011.013.079h0c.034.2.068.407.1.611h0l.013.081v.008l.012.076,0,.013.012.074,0,.016.012.071,0,.019.012.072,0,.016.012.073,0,.015.012.075,0,.012.012.077v.009c.242,1.5.467,3,.679,4.515l-1.981.278c-.548-3.911-1.209-7.857-1.963-11.728Zm3.331,23.755q.515,5.948.721,11.977l-2,.068c-.134-3.951-.375-7.945-.715-11.872Zm-1.183,23.946,2,.036c-.01.555-.022,1.114-.036,1.668v0l0,.081v.014l0,.072v.022l0,.066v.029l0,.057v.358l0,.06v.031l0,.065v.025l0,.073v.018l0,.081v.01l0,.088v0q-.1,3.335-.3,6.645v.026l0,.065,0,.047,0,.044,0,.066v.023l0,.073v.018l0,.075v.016l0,.076v.014l-.005.087h0c-.039.631-.081,1.256-.125,1.886l-2-.141C450.714,238.59,450.891,234.593,450.963,230.64Zm-1.674,23.718,1.985.246q-.74,5.984-1.789,11.866l-1.969-.351C448.207,262.236,448.8,258.279,449.289,254.358Zm-4.169,23.41,1.948.455q-.128.549-.259,1.1h0q-.109.456-.22.912v0l-.021.086,0,.01-.019.079,0,.016-.018.073,0,.019-.017.07-.005.021-.017.069-.005.021-.016.067-.006.025-.016.067-.005.021-.017.07,0,.02-.02.08,0,.008-.022.087v0l-.045.18,0,.014-.019.076-.005.02-.017.067-.007.027-.016.062-.007.029-.015.059-.008.031-.015.058-.008.032-.014.055-.009.035-.014.055-.009.034-.014.055-.008.033-.015.057-.008.032-.014.055-.009.034-.015.059-.007.029-.019.076,0,.011L446,282.6l-.007.029-.015.059-.008.032-.015.058-.008.032-.014.056-.009.034-.014.055-.009.034-.014.055-.008.031-.015.058-.008.033-.014.055-.009.034-.014.054-.009.036-.014.054-.008.032-.015.059-.008.029-.017.064-.006.024-.019.074,0,.015-.047.179,0,.011-.02.077-.006.024-.017.063-.008.029-.016.06-.008.029-.016.059-.008.029-.016.062-.007.026-.017.064-.006.024-.018.067-.006.021-.018.068-.006.021-.019.071,0,.017-.021.077,0,.011q-.1.361-.193.721v0l-.024.089h0q-.573,2.125-1.186,4.233l-1.921-.558C443.208,285.483,444.222,281.612,445.12,277.768Zm-6.635,22.83,1.888.66q-1.054,3.016-2.191,5.993v0q-.2.524-.4,1.046l0,.005-.032.082,0,0-.033.084v0q-.78,2.008-1.6,4l-1.85-.76C435.762,308.063,437.183,304.323,438.485,300.6Zm-9.03,21.994,1.807.857c-.663,1.4-1.343,2.794-2.034,4.176h0l-.038.076v0l-.037.074,0,0-.223.443-.008.017-.026.052-.015.03-.022.044-.02.04-.02.039-.021.041-.02.04-.021.042-.019.037-.023.045-.017.033-.027.053-.014.027-.031.061-.01.019-.168.33,0,0-.041.08v0l-.041.08,0,0-.041.081h0q-1.216,2.379-2.485,4.725l-1.759-.952C425.953,329.725,427.763,326.157,429.454,322.592ZM418.138,343.5l1.706,1.044-.035.057h0l-.039.064-.008.013-.036.059-.01.016-.034.055-.014.023-.032.052-.015.025-.03.049-.018.03-.029.046-.021.034-.025.04-.025.041-.042.068-.026.042-.019.03-.029.047-.018.03-.03.049-.017.028-.029.048-.019.03-.031.05-.015.025-.034.054-.014.022-.036.058-.012.019-.038.061-.01.017-.245.394v0l-.048.076,0,0-.047.075,0,.005-.046.073,0,.007q-.994,1.588-2.013,3.159v0l-.357.548,0,0-.045.07-.009.014-.042.064-.009.014-.04.061-.012.018-.038.059-.012.019-.037.057-.013.02-.04.061-.009.014-.048.074v0l-.05.076-.015.022-.034.052-.022.033-.026.04-.025.038-.024.036-.027.04-.022.034-.028.042-.02.031-.031.047-.016.024-.033.05-.013.02-.036.055-.006.01c-.721,1.09-1.444,2.161-2.184,3.237l-1.648-1.133C413.9,350.225,416.079,346.869,418.138,343.5Zm-13.465,19.6,1.586,1.218-.207.269-.006.008-.046.059-.008.01-.043.056-.011.014-.044.057-.007.009-.047.061,0,0-.308.4,0,0-.046.06-.008.01-.045.057-.009.011-.045.058-.008.01-.046.059-.007.009-.047.06,0,0-.259.331h0l-.047.06-.008.01-.043.054-.012.016-.04.052-.014.018-.039.05-.016.02-.038.049-.016.021-.038.048-.017.021-.039.05-.006.007-.15.19,0,0-.042.054-.012.015-.039.049-.017.021-.036.045-.02.025-.033.042-.023.029-.032.04-.022.028-.033.041-.023.029-.031.039-.026.033-.028.036-.029.037-.027.034-.053.067-.024.031-.032.04-.023.029-.034.043-.022.028-.034.043-.022.028-.034.043-.023.029-.033.042-.022.028-.036.045-.021.026-.038.047-.018.022-.044.056-.012.014-.173.217,0,0-.053.066-.009.012-.05.062-.007.009-.051.063-.008.01-.051.064-.006.007-.055.068,0,0q-2.117,2.629-4.309,5.192l-1.52-1.3C399.75,369.34,402.269,366.231,404.673,363.1Zm-15.455,18.071,1.449,1.378q-2.765,2.908-5.631,5.717l-.008.008-.05.049-.014.014-.048.047-.013.013-.048.047-.016.016-.045.044-.019.018-.043.042-.021.02-.043.042-.006.006-.155.151-.025.024-.036.035-.028.027-.035.034-.029.029-.033.032-.033.032-.027.026-.041.04-.023.022-.044.043-.019.019-.049.048-.016.015-.266.257h0q-.809.781-1.626,1.555l-1.375-1.452C383.665,386.859,386.5,384.032,389.218,381.172Zm-17.269,16.346,1.3,1.523-.139.118-.016.014-.052.044-.023.019-.044.037-.028.024-.041.035-.029.024-.038.032-.032.027-.035.03-.034.029-.03.026-.038.032-.026.022-.226.191-.013.011-.054.045-.013.011-.053.045-.014.012-.055.046-.011.009-.056.047-.01.008-.514.431,0,0-.782.65,0,0-.062.051,0,0-.061.051,0,0-.452.373,0,0-.056.046-.013.011-.052.043-.015.013-.052.042-.016.013-.052.043-.012.01-.056.046-.008.007-.253.207,0,0-.049.04-.021.017-.042.034-.028.023-.041.033-.029.023-.039.032-.03.025-.039.032-.031.025-.037.03-.032.026-.038.031-.032.026-.036.029-.044.035-.025.021-.069.056-.015.012-.054.043-.025.02-.046.037-.024.019-.046.037-.025.02-.047.038-.024.019-.046.038-.024.02-.051.041-.018.015-.062.05-.007.006-.29.234h0l-.07.056-.005,0-.066.053-.009.007-.065.052-.006,0-.069.055,0,0q-1.024.82-2.058,1.627h0l-.073.057,0,0-.07.055,0,0-.366.285-.011.008-.06.046-.02.015-.049.038-.027.021-.041.032-.033.026-.037.029-.034.026-.036.028-.036.028-.031.024-.041.032-.017.013c-.314.243-.626.483-.942.724l-1.214-1.589C365.828,402.59,368.942,400.077,371.948,397.518Zm-18.893,14.438,1.129,1.651q-.927.634-1.861,1.259h0l-.62.414-.008.005-.069.046-.01.006-.068.045-.009.006-.07.046-.007,0-.073.049,0,0-.39.258h0l-.077.051,0,0-.073.048-.006,0-.069.046-.011.007-.068.045-.008.005-.073.048,0,0-.467.306-.006,0-.072.047-.006,0-.072.047-.007,0-.073.048,0,0-.076.05h0l-.629.407h0q-2.52,1.627-5.086,3.189l-1.04-1.708C346.434,416.355,349.8,414.184,353.055,411.956Zm-20.31,12.362.948,1.761q-.971.522-1.947,1.036h0l-.074.039h0l-.071.037-.009,0-.068.036-.007,0-.069.036-.009,0-.3.155h0l-.061.032-.018.009-.052.027-.03.015-.045.024-.036.018-.039.02-.045.023-.034.018-.046.024-.034.018-.05.026-.029.015-.056.029-.023.012-.068.035-.012.006-.33.171h0l-.078.04-.008,0-.076.039-.005,0-.078.04,0,0q-3.416,1.755-6.9,3.4l-.853-1.809C325.7,427.992,329.268,426.19,332.745,424.318Zm-21.507,10.14.755,1.852h0q-2.986,1.218-6.015,2.353h0l-.083.031-.009,0-.077.029-.012,0-.074.028-.013,0-.075.028-.012,0-.076.028-.011,0-.077.029-.01,0-.085.032h0l-.261.1-.015.005-.07.026-.026.009-.059.022-.03.011-.055.02-.032.012-.053.02-.032.012-.052.019-.036.013-.048.018-.037.014-.049.018-.037.014-.049.018-.036.013-.047.017-.039.014-.037.013-.191.07-.021.008-.061.022-.022.008-.061.022-.023.008-.06.022-.023.008-.059.021-.026.009-.06.022-.02.007-.065.024-.017.006-.067.024-.014,0-.07.025-.007,0c-.876.316-1.747.625-2.628.93l-.656-1.889C303.84,437.36,307.583,435.949,311.238,434.458Zm-22.461,7.792.554,1.922q-5.743,1.655-11.614,3.013l-.45-1.949C281.113,444.347,284.986,443.343,288.777,442.25Zm-23.166,5.355.346,1.97q-2.665.468-5.352.874h0l-.087.013h-.008l-.081.012-.014,0-.077.012-.015,0-.073.011-.021,0-.067.01-.026,0-.06.009-.034.005-.054.008-.037.005-.052.008-.04.006-.049.007-.041.006-.039.006-.492.072h0l-.087.013h0l-.088.013h0q-2.478.357-4.97.659l-.241-1.985C257.769,448.875,261.727,448.288,265.611,447.605Zm-23.6,2.868.136,2c-1.569.107-3.134.2-4.711.273h0l-.087,0h0l-.086,0h-.006l-.084,0h-.007l-.084,0h-.006l-.085,0h0l-.087,0h0l-.089,0h0l-.089,0h0c-.453.02-.9.039-1.353.056l-.084,0-.09,0h-.018l-.091,0-.093,0-.093,0-.091,0-.091,0-.092,0-.093,0-.065,0h-.027l-.064,0h-.028l-.064,0h-.028l-.062,0h-.031l-.061,0h-.03l-.061,0h-.031l-.061,0h-.033l-.057,0h-.038l-.055,0h-.035l-.057,0h-.035l-.058,0H233.5l-.058,0h-.036l-.057,0h-.034l-.058,0h-.031l-.152,0-.092,0h-.03l-.085,0-.094,0-.072,0h-.017l-.1,0-.072,0H232.5l-.075,0H232.4l-.076,0h-.017l-.1,0-.073,0h-.017l-.077,0h-.015l-.08,0h-.012l-.081,0h-.012l-.082,0h-.011l-.084,0h-.01l-.086,0h-.006l-.091,0h0q-.659.014-1.319.025l-.032-2C234.079,450.909,238.077,450.741,242.008,450.473Zm-35.655-.364c3.926.349,7.92.6,11.87.742l-.072,2h-.063l-.055,0h-.039l-.051,0-.09,0-.052,0h-.038l-.059,0h-.032l-.065,0h-.026l-.072,0h-.019l-.081,0H217.4q-5.646-.223-11.22-.72Zm-23.537-3.355c3.869.763,7.814,1.432,11.723,1.99l-.282,1.98q-1.585-.226-3.162-.473h0l-.092-.014h0l-.09-.014h-.006l-.087-.014h0l-.087-.014h-.006l-.181-.029h0l-.74-.119h0l-.09-.015H189.7l-.085-.014-.012,0-.08-.013-.013,0-.075-.012-.02,0-.073-.012-.016,0-.075-.012-.017,0-.076-.013-.015,0-.074-.012-.018,0-.075-.013-.015,0-.078-.013-.013,0-.084-.014h-.007l-.09-.015h0l-.461-.078h-.006l-.084-.014-.013,0-.077-.013-.018,0-.073-.012-.021,0-.07-.012-.02,0-.071-.012-.022,0-.068-.012-.025,0-.065-.011-.026,0-.068-.012-.021,0-.07-.012-.022,0-.072-.013-.017,0-.077-.013-.014,0-.642-.113h0l-.09-.016h-.007l-.084-.015-.009,0-.081-.015-.013,0-.079-.014-.013,0-.077-.014-.017,0-.076-.014-.014,0-.076-.014-.015,0-.076-.014-.015,0-.079-.014-.01,0-.087-.016h0q-1.61-.293-3.213-.609Zm-23.05-5.837c3.769,1.172,7.62,2.257,11.447,3.226l-.491,1.939q-1.23-.312-2.456-.637h0l-.084-.022-.012,0-.076-.02-.016,0-.072-.019-.019-.005-.07-.019-.02-.005-.069-.018-.022-.006-.068-.018-.02-.005-.073-.019-.015,0-.081-.022-.007,0-.085-.023h-.005l-.358-.1-.018-.005L167,445.1l-.017,0-.071-.019-.021-.006-.068-.019-.022-.006-.065-.018-.025-.007-.064-.018-.024-.007-.065-.018-.024-.007-.067-.018-.022-.006-.067-.018-.023-.006-.07-.019-.018,0-.447-.124-.008,0-.079-.022-.015,0-.072-.02-.022-.006-.068-.019-.02-.006-.069-.019-.02-.006-.07-.019-.018-.005-.07-.02-.02-.005-.075-.021-.011,0-.083-.023-.006,0-.718-.2-.007,0-.083-.024-.007,0-.08-.023-.012,0-.08-.023-.007,0-.084-.024h0l-.719-.207h0l-.089-.026h0l-.087-.025-.006,0-.083-.024-.006,0-.082-.024-.009,0-.082-.024-.005,0-.085-.025h0l-.626-.184h-.005l-.081-.024-.015,0-.074-.022-.015,0-.073-.022-.016,0-.074-.022-.014,0-.072-.021-.018-.006-.071-.021-.017-.005-.072-.022-.016,0-.073-.022-.016,0-.071-.021-.018-.005-.263-.079-.025-.008-.061-.018-.034-.01-.052-.016-.037-.011-.048-.015-.044-.013-.041-.013-.047-.014-.037-.011-.052-.016-.035-.011-.05-.015-.036-.011-.053-.016-.028-.009-.059-.018-.021-.006-.067-.02-.009,0-1.046-.323Zm-22.294-8.259c3.623,1.567,7.337,3.056,11.037,4.427l-.695,1.875-.349-.13-.012,0-.073-.027-.016-.006-.069-.026-.021-.008-.063-.024-.025-.009-.058-.022-.03-.011-.057-.021-.027-.01-.059-.022-.028-.01-.059-.022-.026-.01-.062-.023-.024-.009-.084-.032-.024-.009-.058-.022-.043-.016-.041-.015-.047-.018-.036-.014-.047-.018-.039-.015-.045-.017-.038-.014-.047-.018-.036-.014-.048-.018-.035-.013-.048-.018-.037-.014-.047-.018-.033-.012-.053-.02-.024-.009-.289-.11-.016-.006-.059-.023-.025-.009-.054-.021-.031-.012-.052-.02-.031-.012-.051-.02-.033-.013-.051-.02-.032-.012-.051-.02-.031-.012-.054-.021-.027-.01-.055-.021-.032-.012-.051-.02-.037-.014-.046-.018-.034-.013-.1-.039-.03-.012-.045-.018-.039-.015-.043-.017-.042-.016-.042-.016-.041-.016-.043-.017-.042-.016-.04-.016-.046-.018-.036-.014-.052-.02-.032-.013-.051-.02-.033-.013-.055-.022-.028-.011-.068-.027-.016-.006-.26-.1h0l-.086-.034-.006,0-.08-.031-.009,0-.076-.03-.013-.005-.074-.029-.011,0-.076-.03-.01,0-.078-.031-.007,0-.084-.033h0q-3.137-1.246-6.228-2.583Zm-21.291-10.585c3.438,1.943,6.972,3.819,10.505,5.576l-.89,1.791-.02-.01-.041-.02-.04-.02-.039-.019-.043-.021-.034-.017-.047-.023-.026-.013-.437-.219,0,0-.072-.036-.006,0-.072-.036-.005,0q-3.065-1.541-6.071-3.168l-.006,0-.071-.039,0,0-.071-.038-.007,0-.069-.038-.006,0-.07-.038,0,0-.444-.242-.005,0-.067-.037-.01-.005-.064-.035-.014-.008-.064-.035-.01-.006-.066-.036-.01-.005-.066-.036-.008,0-.439-.242-.006,0-.065-.036-.012-.007-.062-.034-.016-.009-.058-.032-.021-.011-.057-.032-.018-.01-.059-.033-.016-.009-.061-.034-.014-.008-.062-.035-.01-.005-.358-.2-.011-.006-.061-.034-.018-.01-.058-.032-.019-.01-.057-.032-.02-.011-.057-.032-.017-.009-.061-.034-.012-.007-.066-.037h0l-.715-.4Zm-20.05-12.781c3.213,2.3,6.529,4.535,9.856,6.656l-1.075,1.686q-4.074-2.6-8.029-5.362l-.005,0-.068-.048-.01-.007-.066-.046-.009-.007-.067-.047-.008-.006-.074-.052h0l-.228-.16-.014-.01-.058-.041-.026-.018-.046-.032-.034-.024-.038-.027-.035-.025-.038-.027-.036-.025-.037-.026-.036-.026-.035-.025-.041-.029-.027-.019-.045-.032-.023-.016-.254-.18,0,0-.061-.044-.01-.007-.057-.041-.015-.01-.059-.042-.008-.006-.064-.045,0,0-.271-.193ZM77.541,394.466c2.953,2.621,6.015,5.2,9.1,7.658l-1.247,1.564q-2.273-1.813-4.5-3.682h0l-.069-.058,0,0-.063-.053-.011-.009-.061-.051-.009-.008-.065-.055,0,0-.211-.178-.02-.017-.048-.04L80.3,399.5l-.037-.031-.037-.031-.029-.025-.042-.036-.024-.02-.044-.037-.021-.018-.05-.042-.009-.008c-1.279-1.086-2.539-2.179-3.794-3.293Zm-16.929-16.7c2.66,2.916,5.434,5.8,8.245,8.572l-1.4,1.424-.631-.625h0l-.478-.477,0,0-.055-.055-.007-.007-.052-.052-.01-.01-.052-.052-.008-.008-.053-.053-.008-.008-.054-.054h0l-.3-.3h0L65.686,386,65.679,386l-.051-.052-.011-.011-.051-.051-.009-.01-.051-.051-.011-.011-.051-.051-.008-.008-.053-.054,0,0-.293-.3,0,0-.052-.053-.01-.011-.05-.05-.011-.011-.049-.05-.013-.013-.05-.051-.007-.008-.054-.055,0,0-.347-.355-.011-.011-.05-.051-.01-.01-.051-.052-.008-.009-.053-.054-.006-.006-.054-.055-.006-.006L63.723,384l0,0-.056-.057,0,0-.056-.058,0,0q-2.264-2.343-4.465-4.755ZM45.533,359.383c2.338,3.179,4.793,6.339,7.3,9.391l-1.546,1.268-.209-.255h0l-.052-.064,0,0-.05-.062-.006-.007-.049-.06,0-.005-.049-.06-.008-.01-.13-.16-.026-.032-.024-.03-.034-.041-.022-.027-.035-.043-.021-.026-.039-.048-.016-.019-.043-.053-.013-.016-.048-.059-.008-.01-.053-.065,0-.006q-2.239-2.767-4.392-5.6l0,0-.056-.074h0l-.282-.373,0-.006-.05-.066-.013-.017-.04-.053-.019-.026-.035-.047-.019-.026-.034-.045-.023-.03-.029-.039-.026-.034-.027-.035-.029-.038-.023-.031-.029-.039-.022-.03-.128-.171-.006-.007-.039-.053-.014-.019-.041-.055-.009-.013-.044-.059-.007-.01-.047-.063,0,0c-.31-.415-.616-.828-.922-1.245ZM32.476,339.51c1.989,3.408,4.1,6.809,6.266,10.109l-1.671,1.1q-.822-1.252-1.629-2.515l0,0-.047-.073-.006-.009-.043-.067-.008-.013-.041-.064-.01-.015-.038-.059-.013-.02-.037-.059-.011-.018-.039-.062-.009-.015-.042-.066-.007-.012-.047-.074-.022-.036-.026-.04-.022-.035-.026-.041-.024-.039-.022-.035-.027-.043-.019-.031-.03-.047L34.8,347.2l-.03-.047-.017-.026-.033-.052-.011-.017L34.677,347l0,0q-1.954-3.1-3.808-6.273h0l-.118-.2ZM21.6,318.37c1.616,3.6,3.352,7.2,5.159,10.715L24.977,330q-.333-.648-.662-1.3l0-.008-.034-.068-.006-.012-.031-.061-.011-.022-.028-.054-.014-.028-.024-.048-.018-.035-.023-.045-.019-.037-.021-.042-.026-.052-.014-.027L24,328.081l0,0L23.96,328l-.009-.017-.033-.066-.007-.015-.034-.068-.007-.014-.035-.071-.005-.011-.036-.072-.006-.011-.039-.078h0q-1.778-3.56-3.434-7.19v0l-.037-.081,0-.008-.034-.074-.006-.013-.032-.07-.007-.015-.031-.069-.007-.015-.032-.07-.006-.014-.032-.07-.006-.014-.037-.083-.009-.02-.027-.061-.02-.043-.016-.036-.024-.054-.011-.025-.028-.061-.008-.017-.029-.064-.007-.015-.031-.069,0-.005-.058-.129Zm-8.57-22.179c1.224,3.752,2.566,7.521,3.989,11.2l-1.866.721q-1.533-3.968-2.921-8.006l0-.007-.027-.078-.006-.016-.025-.072-.006-.016-.024-.07-.006-.019-.024-.069-.006-.019-.022-.066-.008-.023-.023-.068-.006-.018-.026-.078,0-.008-.09-.265,0-.006-.027-.08-.006-.019-.022-.065-.01-.03-.019-.056-.011-.034-.018-.052-.011-.033-.018-.053-.012-.036-.016-.049-.013-.038-.016-.046-.014-.041-.016-.047-.012-.037-.017-.051-.012-.037-.015-.044-.014-.042-.01-.029-.038-.112-.009-.026-.017-.05-.012-.035-.016-.047-.013-.039-.015-.046-.013-.038-.016-.047-.013-.04-.016-.048-.012-.035-.017-.051-.011-.034-.017-.052-.01-.03-.019-.056-.009-.028-.019-.057-.008-.023-.021-.063,0-.012-.1-.32h0l-.025-.075,0-.009-.022-.068-.006-.018-.007-.021ZM6.87,273.229c.818,3.862,1.75,7.753,2.772,11.564l-1.932.518q-.435-1.623-.847-3.256v0l-.022-.087v0l-.021-.084,0-.008-.021-.082,0-.008-.02-.078,0-.014-.019-.077,0-.012-.02-.079,0-.012-.089-.359,0-.015-.018-.073-.007-.03-.014-.056-.01-.04-.012-.048-.01-.043L6.55,280.8l-.011-.044-.011-.044-.011-.046-.01-.039-.012-.051-.009-.037-.012-.051-.009-.036-.013-.052-.009-.036-.013-.054-.006-.025-.016-.064,0-.016-.017-.072h0c-.055-.227-.11-.453-.164-.68v0l-.02-.082v-.005l-.02-.083h0l-.02-.085h0c-.439-1.843-.854-3.688-1.248-5.548ZM3.188,249.738c.4,3.93.919,7.9,1.529,11.795l-1.976.31c-.4-2.538-.752-5.081-1.065-7.646h0l-.011-.087v0l-.01-.085v-.006l-.01-.081,0-.013-.009-.078v-.009l-.01-.081v-.006l-.01-.083v0l-.01-.084v-.007l-.039-.33,0-.019-.006-.051,0-.04-.005-.043-.006-.05,0-.037-.006-.054,0-.035-.007-.059,0-.028-.007-.064,0-.026-.008-.068,0-.021-.008-.072,0-.018-.009-.078v-.011l-.009-.082v-.011l-.01-.084v-.007l-.01-.088v0q-.126-1.121-.242-2.245ZM0,225.979l2,0q0,.258,0,.516c0,3.783.1,7.611.283,11.377l-2,.1c-.023-.452-.044-.907-.064-1.36h0l0-.09h0l0-.089v-.006l0-.083v-.012l0-.077v-.015l0-.075v-.016l0-.072v-.021l0-.069v-.025l0-.065v-.025l0-.065v-.028l0-.062v-.029l0-.06V235.6l0-.057v-.032l0-.058v-.033l0-.055v-.038l0-.05,0-.042,0-.049v-.039l0-.053v-.037l0-.052v-.039l0-.049,0-.043,0-.047,0-.043,0-.047,0-.046,0-.043,0-.047v-.043l0-.048v-.042l0-.046,0-.045,0-.046v-.041l0-.049v-.04l0-.051v-.038l0-.051v-.039l0-.052v-.036l0-.054v-.034l0-.058v-.031l0-.058v-.033l0-.058v-.03l0-.059v-.031l0-.06V233.4l0-.063v-.028l0-.063v-.025l0-.064v-.024l0-.069v-.01l0-.079v-.017Q.076,232.43.063,231.9v0c0-.029,0-.058,0-.087v0l0-.077v-.014l0-.081v-.008l0-.069v-.023c0-.023,0-.046,0-.069v-.292c0-.022,0-.043,0-.065s0-.017,0-.025V230.9c0-.02,0-.039,0-.059v-.271c0-.008,0-.025,0-.033s0-.038,0-.056,0-.028,0-.036,0-.037,0-.055,0-.026,0-.034,0-.038,0-.057v-.124c0-.018,0-.036,0-.054v-.091c0-.015,0-.021,0-.037v-.054c0-.015,0-.022,0-.037v-.054c0-.015,0-.021,0-.036s0-.035,0-.053v-.04q0-.025,0-.05v-.183c0-.015,0-.022,0-.037V229.4c0-.015,0-.025,0-.04s0-.033,0-.05v-.271c0-.015,0-.027,0-.042s0-.033,0-.049,0-.025,0-.04,0-.034,0-.051v-.041c0-.016,0-.033,0-.049v-.09c0-.015,0-.029,0-.044s0-.031,0-.046,0-.028,0-.043,0-.032,0-.048,0-.03,0-.045v-.18c0-.016,0-.031,0-.047v-.09c0-.008,0-.036,0-.043s0-.032,0-.048,0-.034,0-.042,0-.032,0-.048,0-.037,0-.044,0-.031,0-.046,0-.028,0-.044,0-.031,0-.047,0-.03,0-.045,0-.031,0-.046,0-.03,0-.045,0-.03,0-.045,0-.031,0-.047v-.09c0-.015,0-.03,0-.045s0-.028,0-.051,0-.026,0-.039,0-.035,0-.05,0-.027,0-.041,0-.033,0-.048,0-.029,0-.043,0-.031,0-.046,0-.03,0-.044,0-.036,0-.051,0-.026,0-.039,0-.038,0-.053v-.038c0-.023,0-.04,0-.062s0-.019,0-.028,0-.052,0-.075c0-.005,0-.011,0-.016,0-.023,0-.056,0-.079v-.013c0-.031,0-.061,0-.091H0c0-.031,0-.058,0-.089v-.005C0,226.261,0,226.124,0,225.979Zm1.307-23.956,1.989.214c-.421,3.92-.744,7.909-.959,11.855l-2-.109c.034-.618.069-1.229.108-1.846v-.006l0-.079v-.014l0-.072v-.021l0-.071v-.02l0-.071v-.02l0-.071v-.021l0-.067,0-.027,0-.064,0-.028,0-.062,0-.03,0-.062,0-.03,0-.059,0-.035,0-.058,0-.031,0-.06,0-.031,0-.061,0-.028,0-.062,0-.035,0-.057,0-.036,0-.054,0-.048,0-.064.005-.072v-.01l.006-.081,0-.028,0-.064,0-.035,0-.056,0-.035,0-.059,0-.03,0-.063,0-.029,0-.064,0-.029,0-.063,0-.03,0-.064,0-.027,0-.064,0-.03,0-.063,0-.03,0-.062,0-.029,0-.066,0-.024.005-.069,0-.023.005-.071,0-.021.006-.074V209.1l.006-.077v-.015l.006-.078v-.014l.006-.082v-.01l.007-.086v-.007q.033-.419.067-.839v-.006l.007-.086v-.009l.007-.085V207.7l.007-.085v-.01l.007-.082v-.013l.007-.078v-.017l.006-.075v-.018l.006-.074,0-.019.006-.074v-.017l.006-.075,0-.018.007-.077v-.014l.007-.077,0-.018.007-.076v-.015l.007-.077v-.017l.007-.078v-.014l.007-.077v-.017L.88,206.4v-.005q.025-.279.05-.558v-.01l.007-.079,0-.03.006-.062,0-.03.006-.061,0-.033.005-.06,0-.034.005-.055,0-.042,0-.049,0-.044,0-.046,0-.046,0-.045,0-.048,0-.039.005-.054,0-.038.005-.053,0-.037.005-.053,0-.039.005-.054,0-.032.006-.061,0-.028.006-.065,0-.021.007-.07,0-.02.007-.072v-.01C1.147,203.549,1.225,202.788,1.307,202.024ZM5.13,178.342l1.955.423c-.835,3.855-1.577,7.787-2.206,11.685L2.9,190.132Q3.864,184.184,5.13,178.342ZM11.45,155.2l1.9.629c-1.241,3.747-2.4,7.577-3.438,11.385l-1.929-.527q.235-.861.477-1.72v0l.023-.082,0-.013.021-.076,0-.015.02-.072.005-.019.019-.069.006-.021.018-.064.008-.027.018-.062.008-.027.016-.056.01-.034.014-.048.082-.287,0-.006.021-.074,0-.011.021-.073,0-.012.022-.075,0-.009.022-.077,0-.007.023-.079v0l.024-.082h0q.824-2.85,1.719-5.666v0l.026-.081h0l.026-.082h0c.079-.249.158-.5.238-.744h0l.022-.07.006-.017.021-.064.007-.021.02-.061.008-.025.019-.058.009-.029.017-.052.012-.036.016-.049.012-.036.016-.049.012-.037.016-.049.013-.04.014-.043.015-.046.013-.041.018-.054.01-.03.028-.085.008-.025.021-.063.008-.025.02-.06.01-.031.018-.056.01-.03.019-.057.01-.029.019-.059.009-.027.02-.06.009-.026.021-.062.008-.024.022-.066Zm8.75-22.337,1.821.828c-1.634,3.594-3.192,7.279-4.631,10.953l-1.862-.73.009-.022.022-.057.01-.025.024-.061.01-.024.024-.06.01-.025.024-.061.009-.024.026-.066.006-.016.029-.073,0-.012.031-.077,0-.008.171-.432,0-.01.03-.076,0-.012.028-.071.007-.019.027-.066.008-.02.025-.064.009-.022.026-.066.007-.018.028-.071.005-.014.032-.08,0,0,.1-.26,0-.007.031-.077.008-.019.026-.065.01-.026.023-.058.011-.028.023-.057.012-.029.023-.056.011-.027.023-.056.013-.031.021-.053.012-.031.022-.054.013-.031.023-.058.01-.026.023-.056.022-.055.023-.056.013-.033.02-.05.015-.037.019-.047.017-.041.016-.039.019-.047.015-.036.019-.047.014-.034.02-.049.013-.032.022-.054.01-.024.025-.06.008-.019.026-.063.006-.014c.1-.233.2-.473.292-.7v0C18.21,137.337,19.185,135.1,20.2,132.864Zm11.074-21.279L33,112.6c-2.006,3.4-3.947,6.9-5.769,10.4l-1.774-.923Q28.229,116.747,31.274,111.585ZM44.539,91.6l1.606,1.192c-2.354,3.17-4.654,6.444-6.836,9.732l-1.666-1.106.05-.076.007-.011.043-.064.013-.019.036-.055.017-.025.033-.049.019-.028.032-.048.017-.026.033-.049.019-.028.031-.046.02-.03.028-.042.023-.034.028-.042.021-.032.048-.072.027-.04.023-.034.029-.043.02-.03.029-.043.021-.032.029-.043.02-.03.031-.045.018-.027.033-.049.015-.022.035-.052.013-.02.036-.053.01-.014.182-.27h0l.042-.062.007-.011.041-.061.007-.01.04-.06.009-.013.041-.061.006-.009.042-.062.007-.01.043-.063,0,0,.382-.56h0l.046-.068,0-.005.48-.7,0,0,.047-.068v0l.047-.068,0,0,.383-.552.006-.008.043-.062.006-.008.044-.063,0-.007.045-.065,0,0,.339-.485v0l.045-.064.006-.008L41,96.5l.008-.012.042-.06.007-.01.042-.06.007-.01.044-.062,0,0,.239-.339.006-.008.043-.061.007-.01.04-.056.012-.018.037-.052.015-.021.036-.05.016-.022.036-.05.013-.019.038-.053.013-.018.038-.054.008-.012.181-.255.011-.015.035-.048.018-.025.034-.047.017-.024.034-.047.018-.025.033-.047.019-.027.031-.044.021-.029.032-.045.016-.022.036-.05.01-.014.13-.182.011-.015.034-.047.018-.026.033-.046.018-.025.033-.045.02-.028.032-.044.019-.026.033-.046.018-.026.034-.047.016-.022L42.777,94l.013-.018.039-.054,0,0,.141-.2.007-.01.039-.054.013-.018.036-.05.016-.022.036-.05.016-.022.035-.048.017-.023.036-.05.014-.019.037-.051.015-.02.038-.052.013-.018.038-.053.009-.013.187-.256.007-.01.045-.062.005-.007.044-.059.009-.013.043-.058.007-.01.043-.059.009-.012.045-.061h0C44.068,92.233,44.3,91.916,44.539,91.6Zm15.3-18.479,1.471,1.355c-2.674,2.9-5.306,5.918-7.823,8.959l-1.541-1.275q.657-.794,1.322-1.582l0,0,.055-.065.007-.008.05-.059.012-.014.049-.058.009-.011L53.5,80.3l.012-.014.052-.061.006-.007.057-.067.015-.017.046-.054.027-.032.029-.034.035-.041.022-.026.038-.045.017-.02.04-.047.017-.02.041-.049.012-.015.045-.052.011-.012C55.914,77.462,57.861,75.263,59.836,73.118ZM76.992,56.35l1.321,1.5c-2.964,2.606-5.9,5.327-8.721,8.086l-1.4-1.43q1.131-1.105,2.278-2.2l0,0,.051-.048.014-.013.047-.045.017-.016.046-.043.02-.019.042-.04.023-.022.041-.039L70.8,62l.042-.04.019-.018L70.9,61.9l.013-.012.064-.06.048-.045.03-.028.036-.034.03-.028.034-.032.031-.03.035-.033.03-.028.034-.032.032-.03.033-.031.032-.03.033-.031.032-.03.037-.035.027-.025.045-.042.02-.019.132-.124.013-.012.052-.049.02-.019.046-.043L71.868,61l.044-.041.022-.02.044-.041L72,60.872l.045-.042.02-.018.05-.046.016-.015.058-.054.008-.007.064-.06,0,0L72.4,60.5l.014-.013.053-.049.017-.016.048-.044.022-.02.046-.043.02-.019.047-.043.02-.018.05-.046.016-.015.051-.047.016-.015.059-.055.007-.006.2-.188.011-.01.057-.052.012-.011.055-.05.016-.014.05-.046.018-.017.048-.044.019-.018.05-.046.016-.014.053-.048.015-.014.062-.057,0,0,.2-.187.013-.011.054-.05.016-.015.05-.045.02-.018.048-.044L74,59.031l.048-.044.019-.018.052-.047.015-.013.057-.052.01-.009.2-.186.01-.009.056-.051.02-.018.047-.042.022-.02.044-.04.025-.023.042-.038.025-.022.041-.037.028-.025L74.8,58.3l.027-.024.043-.039.024-.021.062-.056,0,0,.066-.06.023-.021.044-.039.026-.024.04-.036.028-.025.04-.036.029-.026.036-.032.032-.029.035-.031.032-.029.035-.031.032-.028.036-.032.031-.027.035-.031.032-.029.03-.026.07-.063.03-.027.038-.034.028-.025.039-.035.026-.023.042-.037.024-.021.04-.036.027-.024.041-.036.024-.022.041-.037.025-.022.042-.037.024-.021.042-.037.022-.02.222-.2.017-.015.047-.042.018-.016L76.6,56.7l.018-.016.048-.043.016-.014.049-.043.017-.015.051-.045.009-.008ZM95.816,41.48l1.155,1.633c-3.221,2.279-6.425,4.676-9.524,7.123l-1.24-1.569.027-.022.035-.027.036-.028.034-.027.036-.028.034-.027.037-.029.03-.024.041-.032.028-.022.042-.033.025-.02.044-.035.02-.016.245-.192.006,0,.06-.047L87,48.045,87.057,48l.011-.008.058-.046.009-.007.058-.046.01-.007q4.23-3.3,8.614-6.406Zm20.288-12.8.976,1.746c-3.444,1.926-6.883,3.971-10.223,6.078l-1.067-1.691q4.942-3.119,10.042-5.98l.009-.005.059-.033.019-.011.054-.03.026-.015.048-.027.032-.018ZM137.634,18.1l.785,1.839c-3.629,1.549-7.265,3.218-10.808,4.959l-.882-1.8c1.553-.763,3.108-1.505,4.681-2.234h0l.615-.284.012-.006.067-.031.012-.006.065-.03.016-.007.061-.028.021-.009.058-.027.023-.011.058-.027.02-.009.061-.028.018-.008.063-.029.014-.006.282-.128.022-.01.05-.023.033-.015.046-.021.036-.016.045-.02.037-.017.044-.02.039-.018.04-.018.044-.02.039-.017.043-.019.04-.018.04-.018.044-.02.041-.018.039-.018.057-.026.045-.02.061-.027.028-.013.053-.024.032-.014.052-.023.033-.015.049-.022.035-.016.048-.022.035-.016.047-.021.036-.016.048-.022.035-.016.047-.021.035-.016.053-.023.029-.013.062-.027.021-.009.166-.074.028-.012.053-.024.037-.017.045-.02.038-.017.046-.02.037-.016.045-.02.039-.017.045-.02.036-.016.047-.021.038-.017.044-.019.037-.016.048-.021.036-.016.055-.024.026-.012.059-.026.048-.021.059-.026.034-.015.048-.021.036-.016.047-.021.038-.017.042-.019.043-.019.04-.017.044-.019.036-.016.046-.02.036-.016.047-.021.031-.013.052-.023.028-.012.054-.024.021-.009.061-.026,0,0,.3-.132.01,0,.069-.03.012-.005.067-.029.013-.006.069-.03.011,0,.068-.029.013-.006.072-.031h0l.486-.208Zm22.533-8.23.585,1.913c-3.774,1.154-7.568,2.426-11.276,3.78l-.686-1.879q1.4-.513,2.818-1.008h0q2.65-.928,5.329-1.792h0l.086-.028h0l.085-.027.005,0,.085-.027h0l.084-.027.006,0,.534-.17.007,0,.078-.025.02-.006.066-.021.027-.009.059-.019.029-.009.058-.018.032-.01.055-.017.032-.01.053-.017.036-.011.05-.016.036-.011.048-.015.042-.013.038-.012.049-.015.019-.006.229-.072h0l.071-.022.015,0,.07-.022.013,0,.069-.021.017-.005.071-.022.011,0,.076-.024.005,0Zm23.281-5.782.378,1.964c-3.877.746-7.784,1.606-11.613,2.557l-.482-1.941h0l.633-.156.021-.005.066-.016.036-.009.051-.013.039-.009.049-.012.045-.011.04-.01.052-.013L172.8,6.4l.058-.014.027-.006.061-.015.025-.006.065-.016.018,0,.07-.017.013,0,.077-.018h0q3.8-.915,7.634-1.7h.006l.066-.014.024,0L181,4.571l.033-.007.051-.01.04-.008.045-.009.046-.009.04-.008.054-.011.031-.006.063-.013.024,0,.073-.015.013,0,.083-.017h.007Q182.525,4.264,183.448,4.086ZM207.211.81,207.38,2.8c-3.937.332-7.914.773-11.82,1.312l-.273-1.981c.611-.084,1.213-.165,1.825-.244l.012,0,.065-.008.028,0,.052-.007.041-.005.045-.006.047-.006.039-.005.053-.007.036,0,.059-.008.027,0,.067-.009.023,0,.072-.009.017,0,.076-.01.015,0,.083-.01h.005l.09-.011h0q3.8-.476,7.645-.826h0L205.8.933h0L205.9.925h.005l.088-.008h.005l.087-.008h.008l.09-.008h0l.09-.008h0l.088-.008h.006l.082-.007h.013l.183-.016h0l.093-.008.035,0,.054,0,.056,0,.036,0,.063-.005.027,0,.066-.006.025,0,.071-.006.038,0ZM226.5,0V2c-2.407,0-4.845.039-7.246.115l-.063-2,.732-.022h.006l.352-.01h.013l.078,0h.02l.089,0,.249-.006h.021l.074,0,.1,0h.018l.239-.006.1,0,.1,0h.034l.157,0h.305l.106,0h.307l.141,0h.438l.123,0,.1,0H226.5Z" fill="#ec3d08"></path></svg>