<svg xmlns="http://www.w3.org/2000/svg" width="95.622" height="78.434" viewBox="0 0 95.622 78.434"><g transform="matrix(0.946, 0.326, -0.326, 0.946, -282.188, -855.81)"><path d="M691.647,961.459a29.032,29.032,0,0,0-8.973-1.871c-6.8-.45-13.68.6-20.308,2.027a146.806,146.806,0,0,0-21.7,6.506c-.78.3-.463,1.555.351,1.274a160.247,160.247,0,0,1,17.474-4.926,97.126,97.126,0,0,1,19.3-2.592c5.141-.093,11.361.263,15.652,3.461a4.6,4.6,0,0,1,1.455,1.638,1.39,1.39,0,0,1-.295,1.559,7.248,7.248,0,0,1-2.724,1.838,27.577,27.577,0,0,1-5.326,1.677,63.666,63.666,0,0,1-13.011,1.413c-2.258.048-4.516.054-6.772.105a49.787,49.787,0,0,0-6.6.292.965.965,0,0,0,0,1.847,56.818,56.818,0,0,0,6.4.409c2.125.1,4.232.157,6.363.126a69.318,69.318,0,0,0,12.758-1.193c3.679-.746,14.541-3.321,11.494-9.376C696.124,963.555,693.746,962.308,691.647,961.459Z" transform="translate(-64.616 -206.17)" fill="#ec3d08"></path><path d="M635.652,771.481c-6.142,4.987-10.942,11.638-17.974,15.518-2.867,1.582-6.1,2.388-8.821.08-2.781-2.357-3.61-6.4-4.029-9.844-.52-4.273-.331-8.6-.92-12.867-.2-1.451-2.131-1.034-2.545,0-1.371,3.418-1.849,7.218-2.585,10.805-.821,4-1.634,8.2-3.475,11.879-1.466,2.93-3.762,5.113-7.258,4.305-3.953-.913-7.3-4.021-10.183-6.7-3.227-3-6.2-6.574-9.921-8.981a1.094,1.094,0,0,0,.4-.424,8.935,8.935,0,0,0-.022-8.04,6.585,6.585,0,0,0-2.778-2.728c-1.277-.64-3.228-1.2-4.422-.209a.938.938,0,0,0-.3.972,4.51,4.51,0,0,0-.987,6.746,10.621,10.621,0,0,0,6.722,3.78,1.36,1.36,0,0,0-.39,1.177c.9,5.223,3.458,10.149,5.908,14.79,2.563,4.857,5.22,9.674,7.893,14.471.491.881,2.034.286,1.668-.7-1.871-5.059-4.865-9.687-7.367-14.448a63.93,63.93,0,0,1-5.116-11.559c2.37,2.033,4.47,4.479,6.689,6.595,3.163,3.014,6.725,6.3,11.007,7.581,9.443,2.822,12.445-8.628,13.965-15.464.392-1.763.7-3.578,1.043-5.391.055,1.345.128,2.689.276,4.025.45,4.07,1.321,8.541,4.28,11.591,6.713,6.92,15.813-.732,21.107-5.545,2.292-2.083,4.438-4.35,6.687-6.493a59.689,59.689,0,0,1-5.639,10.717c-2.9,4.756-6.427,9.752-7.6,15.288a1.256,1.256,0,0,0,2.42.667c1.94-5.433,4.935-10.266,7.91-15.175,2.819-4.653,5.834-9.616,6.628-15.093A1.373,1.373,0,0,0,635.652,771.481Zm-69.2,1.779a8.462,8.462,0,0,1-4.416-2.3c-1.44-1.475-1.358-3.042-.331-4.713.793.324,1.8.165,2.612.573a4.154,4.154,0,0,1,1.783,1.83A6.187,6.187,0,0,1,566.454,773.26Z" transform="translate(0 -50.696)" fill="#ec3d08"></path><path d="M755.746,710.986c1.726-1.7,1.848-4.594,1.2-6.793-.852-2.906-3.338-5.188-6.51-4.6a1.087,1.087,0,0,0-.895.988,1.456,1.456,0,0,0-1.329.8,7.779,7.779,0,0,0-.683,3.029c-.145,2.216.2,4.995,1.764,6.7A4.585,4.585,0,0,0,755.746,710.986Zm-5.767-8.35a6.864,6.864,0,0,1,1.348.434.786.786,0,0,0,.968-.768,3.933,3.933,0,0,1,2.285,2.97c.372,1.5.325,3.674-1.3,4.394C749.832,711.192,749.267,705.108,749.979,702.635Z" transform="translate(-149.691)" fill="#ec3d08"></path><path d="M944.9,765.294a4.745,4.745,0,0,0-5.6-1.668,1.376,1.376,0,0,0-.684,2,4.2,4.2,0,0,0,.018,4.62c1.327,1.985,4.248,1.833,5.879.292A4.017,4.017,0,0,0,944.9,765.294Zm-2.228,3.1a1.615,1.615,0,0,1-2.287.309,2.13,2.13,0,0,1-.354-2.595,2.234,2.234,0,0,1,2.431.582A1.382,1.382,0,0,1,942.669,768.392Z" transform="translate(-300.702 -50.585)" fill="#ec3d08"></path></g></svg>