<svg xmlns="http://www.w3.org/2000/svg" width="63.033" height="66.61" viewBox="0 0 63.033 66.61"><g transform="translate(-738.689 -6019.392)"><path d="M.967,54.335l-1.934-.511A72.413,72.413,0,0,1,22.385,17.086C31.513,9.451,43.145,3.549,57.945-.957L58.528.957C43.989,5.382,32.586,11.16,23.668,18.62A70.4,70.4,0,0,0,.967,54.335Z" transform="translate(792.63 6020.482) rotate(82)" fill="#ec3d08"></path><path d="M.861,21.831-.861,20.814c4-6.763,8.279-11.7,13.094-15.1.5-.353,1.021-.7,1.523-1.037,2.25-1.5,4.375-2.926,5.435-5.113l1.8.873c-1.3,2.675-3.75,4.316-6.123,5.9-.493.329-1,.67-1.482,1.009C8.807,10.58,4.71,15.317.861,21.831Z" transform="translate(783.63 6025.185) rotate(82)" fill="#ec3d08"></path></g></svg>