<svg xmlns="http://www.w3.org/2000/svg" width="177.903" height="177.927" viewBox="0 0 177.903 177.927"><path d="M89,0h3.106l.063,0h.008l.071,0,.071,0,.07,0,.066,0h0l.069,0h0l.069,0h0l.068,0h0l.115,0h0q2.635.11,5.229.372h0l.137.014h0l.066.007h0l.064.007H98.3l.063.007h.008l.061.006h.01l.032,0L98.5.5h.011l.026,0,.016,0,.031,0,.018,0,.021,0,.016,0h.014l.04,0,.032,0,.014,0,.026,0,.032,0,.038,0h.01l.024,0h.009l.027,0,.035,0h.005l.03,0h.008l.029,0h0l.031,0h.007l.031,0h0l.031,0h0l.033,0h0l.032,0h.006l.032,0h0l.032,0h0l.068.008h0c.55.064,1.094.132,1.641.205L100.7,2.78A88.157,88.157,0,0,0,89,2V0Zm23.714,3.194a88.319,88.319,0,0,1,9.162,3.075h0l.084.034,0,0,.084.034h0l.04.016.005,0,.083.033,0,0,.036.015.006,0,.08.032.01,0,.033.013.007,0,.039.016.007,0,.032.013.011,0,.033.014.006,0,.038.015.012,0,.027.011.013.005.037.015.008,0,.03.012.015.006.025.01.013.006.035.014.015.006.023.009.017.007.023.01.022.009.027.011.017.007.021.008.018.008.023.01.028.012.018.007.021.009.017.007.02.008.032.013.021.009.016.007.021.009.015.006.043.018.011,0,.024.01.012,0,.025.01h0l.056.023.005,0,.028.012.006,0,.086.036.006,0,.121.051,0,0,.449.191L123.243,9a86.644,86.644,0,0,0-11.061-3.875Zm21.993,9.424q3.216,1.929,6.247,4.112l0,0,.077.056,0,0,.024.018.005,0,.074.053.007.005.023.017,0,0,.047.034.008.006.022.016.008.006.045.033,0,0,.021.015.012.008.02.015.014.01.031.022.014.01.019.014.013.01.031.022.015.011.018.013.014.011.018.013.015.011.03.022.016.012.017.012.016.012.023.017.022.016.016.012.018.013.016.012.029.021.012.009.021.016.013.01.023.017.01.007.031.023.013.01.022.016.011.009.032.024.007.005.027.02.01.008.029.021,0,0,.034.025.007.005.028.021.008.006.035.026h0l.033.024.008.006.033.025h0l.036.027,0,0,.033.025,0,0,.072.054,0,0,.073.055h0l.036.027h0l.074.056h0q1.009.761,2,1.55L143.3,21.024a87.525,87.525,0,0,0-9.625-6.691l1.029-1.715Zm18.687,14.946q1.358,1.423,2.653,2.9h0l.061.07h0l.061.07h0l.029.034,0,0,.059.068,0,0,.029.033h0l.03.035,0,0,.026.03,0,.006.056.065.007.008.024.028,0,0,.028.032.006.007.022.026.007.009.027.032,0,0,.025.029.008.009.021.025.007.008.026.031.007.009.02.024.009.01.026.03.006.007.02.024.01.012.019.022.008.01.025.029.011.013.016.019.011.012.023.027.012.014.016.019.013.015.015.017.015.018.02.023.012.015.014.017.013.015.02.024.015.018.013.015.014.017.012.014.022.026.014.017.015.018.011.013.015.018.01.012.026.031.011.013.015.018.01.012.028.033.009.01.016.019.009.011.054.064.008.01.016.02.008.009.035.042,0,0,.018.022.006.007.057.068.006.007.018.022,0,0,.039.047h0l.019.023.005.006.058.07,0,.005.019.023,0,0,.039.047,0,0,.019.023,0,.006.059.071,0,0,.082.1,0,0,.062.076h0l.148.181h0q.443.544.877,1.094h0l.061.078h0l.082.1v0l.06.076,0,0,.081.1,0,0,.059.076v0l.06.077,0,0,.019.024,0,0,.056.072.006.007.018.023,0,0,.036.046,0,0,.017.022.007.009.052.068.008.01.015.02.009.011.026.034.01.013.014.018.011.014.013.017.021.028.013.017.011.015.014.018.013.018.019.025.013.017.012.016.014.018.011.014.022.029.011.014.015.019.011.014.019.026.012.015.017.022.01.013.017.022.009.011.023.031.008.01.019.025.007.009.025.033,0,0,.022.029.007.009.023.03,0,0,.026.035,0,.006.023.03,0,.005.027.035,0,0,.025.033,0,.005.054.072h0q.408.544.807,1.095l-1.619,1.175a87.761,87.761,0,0,0-7.507-9Zm14.054,19.366,0,0,.018.033.008.016.011.021.009.016.015.028.01.018.012.021.01.019.009.018.01.018.017.031.01.018.009.017.01.019.009.016.018.033.009.017.011.02.008.015.011.02.007.014.02.037.007.014.012.022.006.012.023.043,0,.009.012.022.007.013.012.023,0,.006.026.049,0,.008.013.024,0,.009.041.079,0,.008.013.026,0,0,.028.054v0l.014.027,0,.006.043.083,0,0,.014.027,0,0,.044.085,0,0a88.482,88.482,0,0,1,3.766,8.268h0l.086.219v0l.048.123,0,0,.035.089,0,0,.011.029v0l.023.06h0l.011.028,0,.007.033.085,0,.008.01.026,0,.008.032.083,0,.011.01.026,0,0,.02.051,0,.01.009.024.005.014.03.078.006.015.008.022.007.018.014.037.006.016.008.022.006.016.008.022.007.018.013.035.007.018.008.021.007.019.009.025.01.027.007.02.007.02.007.019.009.025.01.025.008.022.007.019.008.022,0,.013-1.873.7a86.849,86.849,0,0,0-4.837-10.675Zm8.374,22.414q.331,1.47.614,2.958v0l.008.043h0l0,.022v0l.012.064v.006l.007.037v.006l0,.019,0,.009.007.038v0l0,.019,0,.01.006.032,0,.009,0,.018,0,.01.011.059,0,.01.006.032,0,.009,0,.017,0,.013,0,.016,0,.024,0,.017,0,.012,0,.016,0,.024,0,.015,0,.014,0,.014,0,.024,0,.015,0,.015,0,.014,0,.025,0,.014,0,.016,0,.014,0,.025,0,.014,0,.015,0,.014,0,.025,0,.014,0,.015,0,.015,0,.018,0,.021,0,.016,0,.014,0,.026,0,.012,0,.018,0,.012,0,.027,0,.01,0,.021,0,.011,0,.028,0,.009,0,.02,0,.012,0,.025,0,.01,0,.022,0,.01,0,.028v.007l0,.024,0,.009,0,.029v.005l0,.027v.008l.011.061v.008l0,.027V73.8l0,.027v.008l0,.029v0l.005.031V73.9l0,.029v0l.005.03v.007l0,.028v0l.005.03v.007l0,.028v0l.005.031v.005l.005.031h0l.005.032v.005l0,.03v0l.005.032v.005l.005.03v0l.005.032v.006l0,.028v0l.005.032v0l.005.03v0l.005.033v0l.005.032v0l.005.033v0l.005.032h0l.005.033v0l0,.03v0l.005.033v0l0,.031v0l.005.033v0l0,.031v0l.011.067h0l.005.034h0l.005.032v0l.011.066v0l.011.067h0l.011.067v0l.011.067v0l.011.068h0l.01.067v0l.01.067v0l.01.066v0l.01.066v0l.01.068h0l.01.068h0l.01.068h0l.01.068h0l.01.068h0l.02.137v0l.01.068h0q.37,2.539.595,5.122l-1.992.173a87.176,87.176,0,0,0-1.8-11.581Zm.084,23.747,2,.092q-.015.332-.033.663h0l0,.069v0l0,.066v.006l0,.064v.009l0,.037v.034l0,.038v.122l0,.027v.043l0,.027v.043l0,.029v.009l0,.025V94.5l0,.031v.006l0,.028v0l0,.032v0l0,.032h0l0,.034v0l0,.033v0l0,.034v0a89.141,89.141,0,0,1-1.105,9.419h0l-.012.068v0l-.011.066v0l-.011.066v0l-.011.064v.006l-.005.029v0l-.005.03v.008l-.011.061v.008l0,.025,0,.009,0,.025,0,.011,0,.021,0,.014,0,.022,0,.012,0,.019,0,.019,0,.017,0,.014,0,.017,0,.021,0,.016,0,.015,0,.016,0,.022,0,.016,0,.015,0,.015,0,.024,0,.014,0,.016,0,.013,0,.027,0,.013,0,.016,0,.013,0,.013-1.967-.359A87.553,87.553,0,0,0,175.906,93.09ZM171.7,116.1l1.9.622q-.157.479-.319.955h0l-.032.094v0l-.032.093v0l-.01.029,0,.008-.03.086,0,.009-.009.026,0,.01-.017.048,0,.009-.009.025,0,.013-.009.025,0,.006-.017.049,0,.014-.008.023-.006.017-.008.024-.011.031-.006.019-.007.021-.006.018-.009.025-.008.023-.009.026-.006.018-.008.022-.006.017-.013.036,0,.013-.01.027-.005.015-.01.029,0,.011-.013.037,0,.013-.01.028,0,.012-.014.039,0,.005-.012.034,0,.012-.011.031,0,.01-.014.04,0,.007-.012.034,0,.009-.029.082,0,.007-.013.037,0,0-.03.084,0,.007-.03.084v0l-.015.04v0l-.031.086v0l-.048.131h0q-1.056,2.893-2.3,5.689v0l-.037.083v0l-.018.039v0l-.037.082,0,.005-.017.038v0l-.018.041v0l-.017.037,0,.006-.036.079,0,.008-.015.033,0,.007-.017.039,0,.007-.014.032-.005.012-.013.028,0,.01-.016.035-.006.014-.011.025-.007.015-.013.029-.008.018-.011.023-.008.018-.009.02-.008.018-.015.032-.009.019-.008.017-.009.02-.007.016-.019.041,0,.01-.011.024-.005.012-.011.024,0,0-.024.053,0,.008-.012.026,0,.007-.039.084,0,.005-.056.12h0q-.3.647-.612,1.287l-1.8-.874A86.725,86.725,0,0,0,171.7,116.1Zm-10.216,21.039,1.665,1.108q-1.2,1.805-2.489,3.55l0,0-.057.077,0,0-.058.078h0l-.018.024,0,.006-.053.072-.006.009-.017.022,0,.006-.031.042-.007.009-.016.021-.008.01-.05.067-.01.013-.014.019-.01.013-.024.032-.01.013-.014.019-.01.013-.024.032-.01.013-.014.018-.011.014-.013.018-.013.018-.02.027-.012.016-.013.018-.012.016-.012.016-.021.028-.012.016-.013.017-.012.015-.019.025-.013.018-.015.019-.012.015-.014.019-.01.014-.023.03-.01.014-.014.019-.011.015-.023.03-.007.01-.018.024-.01.013-.018.023-.007.01-.023.031-.009.012-.017.022-.009.011-.024.032-.005.007-.02.026-.008.01-.02.026-.006.008-.025.032-.007.01-.019.025-.007.009-.025.032,0,.006-.021.027-.008.01-.023.029,0,0-.026.033-.006.008-.021.027-.005.007-.026.034,0,0-.024.03-.005.007-.026.033h0l-.027.035,0,0-.024.03,0,.006-.027.035h0l-.026.033,0,.006-.054.069,0,.005-.025.032,0,0-.056.071,0,0-.056.072h0l-.085.108,0,0-.056.071,0,0-.028.035h0l-.057.073h0l-.057.072h0l-.086.109h0l-.058.072h0q-.584.732-1.183,1.452h0l-.149.179v0l-.059.071h0l-.029.034v0l-.058.07,0,0-.058.069,0,0-.027.032,0,0-.058.069,0,0-.058.068,0,0-.026.03,0,0-.028.034,0,0-.025.029-.007.008-.025.03,0,0-.027.032-.007.008-.022.025-.006.008-.027.032-.005.006-.022.026-.008.009-.025.029,0,0-.027.032-.008.009-.02.023-.009.01-.026.03-.007.008-.02.023-.01.011-.021.024-.008.009-.024.028-.011.013-.017.019-.011.012-.024.028-.011.012-.016.019-.012.014-.016.018-.018.021-.017.019-.012.014-.015.017-.013.015-.023.027-.014.016-.012.014-.015.017-.012.014-.026.03-.011.012-.016.018-.01.011-.056.064-.007.008-.018.021,0,0-.038.043,0,0-.019.022-.005.006-.061.07,0,0-.074.084-1.5-1.321A87.664,87.664,0,0,0,161.482,137.135ZM146.032,154.7l1.312,1.51q-.6.522-1.21,1.033h0l-.07.059,0,0-.069.058,0,0-.032.026,0,0-.035.029h0l-.032.027-.006,0-.032.027h0l-.034.028-.006.005-.027.022-.008.007-.032.027-.005,0-.027.022-.01.008-.026.022-.006.005-.03.025-.012.01-.022.018-.011.009-.03.024-.012.01-.02.016-.014.011-.019.016-.021.018-.019.016-.016.014-.014.012-.017.014-.018.015-.027.022-.012.01-.02.016-.01.008-.037.03-.009.007-.02.017-.01.008-.068.056-.006.005-.023.019,0,0-.074.06h0l-.076.061h0q-3.464,2.807-7.206,5.265l-1.1-1.672A87.65,87.65,0,0,0,146.032,154.7Zm-19.554,12.836.863,1.8-.018.009-.015.007-.021.01-.016.008-.021.01-.031.015-.02.009-.016.008-.02.01-.018.008-.029.014-.022.01-.019.009-.018.008-.019.009-.02.009-.031.015-.018.009-.019.009-.018.008-.019.009-.032.015-.018.009-.019.009-.019.009-.02.009-.028.013-.021.01-.019.009-.019.009-.019.009-.025.012-.026.012-.018.009-.018.008-.021.01-.018.008-.031.015-.017.008-.019.009-.018.009-.023.011-.025.011-.022.01-.018.008-.02.009-.017.008-.033.015-.018.008-.019.009-.019.009-.019.009-.028.013-.022.01-.02.009-.017.008-.02.009-.024.011-.025.011-.02.009-.02.009-.017.008-.031.014-.02.009-.021.01-.016.007-.021.009-.017.008-.033.015-.019.008-.02.009-.017.008-.02.009-.022.01-.028.013-.019.009-.019.009-.019.009-.023.01-.027.012-.019.009-.019.009-.019.008-.021.01-.029.013-.019.009-.02.009-.018.008-.02.009-.032.014-.019.009-.017.008-.02.009-.017.008-.038.017-.013.006-.022.01-.014.006-.022.01-.015.007-.037.017-.015.007-.022.01-.015.007-.027.012-.025.011-.022.01-.015.007-.022.01-.014.006-.04.018-.012.005-.023.01-.014.006-.023.01-.01,0-.042.019-.014.006-.022.01-.013.006-.046.02-.008,0-.023.01-.013.006-.023.01-.011,0-.044.019-.011,0-.024.011-.011,0-.079.034-.012.005-.024.011-.01,0-.05.022-.006,0-.024.011-.012.005-.025.011h0l-.053.023-.008,0-.026.011-.01,0-.081.035-.01,0-.025.011-.008,0-.053.023h0l-.027.012-.008,0-.085.036-.006,0-.028.012-.006,0-.086.036-.007,0-.087.037h0l-.027.012-.008,0-.085.036-.006,0-.029.012h0l-.09.038,0,0-.09.038h0l-.03.012h0l-.091.038h0l-.122.051,0,0-.091.038h0l-.031.013h0l-.093.038h0l-.125.052h0q-1.3.535-2.622,1.029h0l-.127.047h0l-.221.082h0l-.094.035h0l-.031.011h0l-.09.033-.008,0-.029.01h0l-.062.023h0l-.028.01-.008,0-.087.032-.007,0-.027.01-.009,0-.085.031-.009,0-.027.01,0,0-.054.019-.008,0-.026.009-.011,0-.082.029-.012,0-.024.009-.013,0-.045.016-.011,0-.023.008-.015.005-.023.008-.017.006-.036.013-.017.006-.022.008-.018.006-.024.008-.03.011-.02.007-.019.007-.02.007-.024.008-.023.008-.027.01-.017.006-.023.008-.016.006-.036.013-.013,0-.027.009-.015.005-.029.01-.011,0-.038.013-.013,0-.028.01-.012,0-.039.014h0l-.036.012-.011,0-.032.011-.009,0-.04.014-.007,0-.035.012-.008,0-.083.028-.007,0-.037.013-.005,0-.085.029,0,0-.13.045h0l-.088.03h0q-.713.242-1.432.473l-.611-1.9A86.718,86.718,0,0,0,126.478,167.536Zm-22.269,7.139.347,1.97q-2.736.482-5.528.8h0l-.067.008h0l-.066.007h-.006l-.064.007h-.006l-.063.007h-.008l-.061.007h-.009l-.06.006H98.6l-.041,0-.017,0h-.012l-.017,0-.024,0-.016,0h-.014l-.016,0-.024,0-.017,0h-.012l-.019,0-.022,0-.03,0-.015,0-.025,0-.015,0h-.013l-.041,0-.03,0-.017,0-.023,0-.016,0h-.014l-.016,0-.025,0-.031,0-.04,0-.03,0-.04,0-.032,0h-.011l-.028,0-.032,0h-.011l-.028,0-.032,0h-.01l-.029,0h-.01l-.032,0-.028,0h-.009l-.023,0h-.009l-.029,0h-.01l-.023,0h-.008l-.03,0H97.5l-.025,0h-.007l-.03,0-.034,0H97.4l-.031,0h-.006l-.029,0h0l-.031,0h-.006l-.028,0h0l-.031,0h-.006l-.029,0h0l-.033,0h0l-.031,0h0l-.033,0h0l-.031,0h0l-.032,0h0l-.031,0h0l-.032,0h-.006l-.03,0h0l-.033,0h0l-.032,0h0l-.034,0h0l-.067.006h0l-.032,0h0l-.034,0h0l-.068.006h0l-.068.006h0l-.067.006h0l-.067.006h0l-.067.005h0l-.066.005h0l-.066.005-.038,0h0l-.038,0-.065.005h0l-.066.005-.037,0-.033,0-.038,0-.033,0h-.006l-.065,0h-.005l-.066,0h0l-.066,0H95.6l-.064,0-.038,0h0l-.039,0-.032,0-.039,0-.034,0-.037,0-.033,0-.038,0-.035,0-.037,0-.025,0h-.01l-.025,0H95.1l-.024,0-.035,0-.033,0-.037,0-.034,0-.037,0-.032,0-.037,0H94.8l-.04,0-.029,0-.042,0-.029,0-.042,0H94.6l-.041,0h-.031l-.04,0h0l-.14.008h0q-.85.05-1.7.085l-.08-2A87.629,87.629,0,0,0,104.209,174.675Zm-34.949-.924a87.124,87.124,0,0,0,11.571,1.87l-.185,1.991q-.543-.051-1.084-.108h0l-.022,0h-.006l-.037,0-.026,0h-.01l-.029,0h-.013l-.017,0h-.014l-.04,0-.032,0H79.3l-.025,0h-.012l-.023,0h-.007l-.029,0-.036,0h0l-.031,0h-.006l-.029,0h0l-.032,0h-.005l-.03,0h0l-.033,0h0l-.068-.008h0q-3.984-.449-7.855-1.243h0L71,176.178h0l-.065-.013h0l-.063-.013h-.005l-.031-.006h0l-.029-.006-.008,0-.03-.006h0l-.029-.006-.008,0-.028-.006h-.006l-.025-.005-.01,0-.028-.006h0l-.028-.006-.011,0-.019,0-.019,0-.017,0-.016,0-.012,0-.026-.005-.013,0-.016,0-.013,0-.028-.006-.01,0-.019,0-.008,0-.06-.013H70.3l-.064-.014h0L70.167,176h0q-.682-.147-1.359-.3ZM47.4,165.431a86.862,86.862,0,0,0,10.646,4.9l-.712,1.869q-.528-.2-1.053-.408h0l-.085-.034h0l-.04-.016h0l-.084-.033-.006,0-.041-.016h0l-.042-.017-.006,0-.034-.014-.008,0-.04-.016h0l-.039-.016-.01,0-.034-.014-.006,0-.039-.016-.009,0-.031-.013-.011,0-.037-.015,0,0-.036-.014-.013-.005-.028-.011-.013-.005-.037-.015-.012,0-.027-.011-.014-.006-.029-.012-.009,0-.036-.015-.015-.006-.025-.01-.014-.006-.036-.015-.013-.005-.025-.01-.017-.007-.022-.009-.017-.007-.033-.013-.018-.008-.02-.008-.019-.008-.023-.01-.027-.011-.02-.008-.02-.008-.018-.008-.019-.008-.033-.014-.02-.008-.018-.007-.021-.009-.017-.007-.037-.015-.016-.007-.022-.009-.015-.006-.022-.009-.009,0-.046-.019-.012-.005-.024-.01-.011,0-.05-.021-.005,0-.025-.01-.012-.005-.025-.01,0,0-.055-.023-.007,0-.026-.011-.009,0-.083-.035-.009,0-.027-.011-.005,0-.056-.024h0l-.028-.012-.006,0-.088-.037,0,0-.029-.012h0l-.09-.038,0,0-.215-.092h0l-.217-.094h0q-3.12-1.354-6.113-2.935h0l-.206-.109h0l-.117-.062h0l-.088-.047h0l-.117-.063h0l-.086-.046h0l-.116-.063,0,0-.086-.046h0l-.028-.015,0,0-.084-.046,0,0-.1-.054ZM28.558,151.576a87.769,87.769,0,0,0,8.958,7.562l-1.185,1.611q-2.345-1.724-4.57-3.6h0l-.072-.06h0l-.035-.029h0l-.07-.059,0,0-.069-.059,0,0-.032-.027,0,0-.067-.057-.006,0-.066-.056-.007-.006-.027-.023-.006-.005-.033-.028,0,0-.03-.026-.007-.006-.029-.025,0,0-.032-.028-.008-.007-.025-.021-.009-.008-.031-.026-.008-.006-.024-.02-.012-.01-.023-.02-.008-.007-.029-.025-.012-.01-.021-.018-.011-.01-.029-.025-.012-.01-.02-.017-.013-.011-.021-.018-.016-.014-.023-.02-.014-.012-.018-.015-.014-.012-.027-.024-.014-.013-.016-.014-.016-.014-.015-.013-.026-.023-.015-.013-.017-.015-.013-.012-.017-.015-.022-.019-.021-.018-.012-.01-.019-.017-.008-.007-.039-.034-.006-.006-.02-.018-.009-.007-.065-.057-.008-.007-.021-.018,0,0-.046-.04h0l-.023-.02,0,0-.071-.063,0,0-.1-.087h0L30,155.638h0q-1.446-1.281-2.835-2.623Zm-14.5-18.358a87.5,87.5,0,0,0,6.632,9.666l-1.569,1.24,0,0-.022-.028-.006-.007-.027-.034v0l-.025-.031-.007-.009-.022-.028,0-.005-.026-.033-.007-.008-.019-.025-.008-.01-.024-.031-.008-.01-.018-.023-.011-.014-.016-.02-.01-.012-.023-.029-.011-.014-.015-.019-.012-.015-.016-.02-.019-.024-.012-.015-.013-.017-.011-.014-.026-.034-.008-.01-.015-.02-.009-.011-.016-.02-.005-.007-.032-.041-.007-.008-.017-.022-.006-.007-.055-.071-.005-.007-.057-.074,0,0-.019-.025,0,0-.059-.077,0,0-.059-.077h0Q17,141.379,15.767,139.59h0l-.076-.109h0l-.056-.081,0,0-.055-.08h0l-.074-.107,0-.006-.053-.077,0,0-.017-.025,0-.006-.051-.075,0-.007-.05-.073-.006-.008L15.3,138.9l-.006-.008-.031-.046,0,0-.015-.022-.008-.011-.014-.021-.005-.008-.027-.04-.008-.012-.014-.021-.008-.011-.027-.04-.006-.009-.014-.021-.008-.012-.014-.02-.009-.013-.023-.034-.009-.014-.013-.02-.009-.013L15,138.467l-.009-.013-.013-.019-.01-.014-.013-.019-.007-.011-.024-.036-.009-.014-.013-.019-.01-.015-.021-.032-.01-.015-.013-.02-.009-.013-.013-.02-.009-.014-.022-.034-.009-.014-.013-.02-.01-.015-.021-.032-.01-.015-.013-.02-.01-.014-.013-.019-.012-.018-.019-.028-.011-.016-.012-.018-.011-.017-.016-.024-.015-.023-.01-.016-.012-.018-.011-.016-.019-.029-.011-.017-.012-.018-.012-.018-.011-.017-.015-.023-.015-.023-.01-.016-.013-.019-.01-.016-.019-.029-.011-.017-.012-.019-.01-.016-.013-.02-.014-.022-.015-.023-.011-.017-.011-.018-.011-.017-.02-.03-.01-.015-.013-.019-.011-.016-.013-.02-.013-.02-.015-.024-.011-.017-.012-.018-.01-.016-.02-.031-.01-.015-.012-.019-.011-.017-.012-.018L14.1,137.1l-.013-.021-.011-.016-.012-.018-.01-.016-.02-.031-.009-.014-.013-.02-.01-.016-.012-.019-.015-.023-.014-.022-.011-.017-.011-.018-.011-.018-.013-.02-.018-.028-.01-.016-.011-.018-.011-.018-.018-.029-.011-.017-.012-.019-.01-.016-.012-.018-.016-.025-.014-.022-.01-.017-.012-.019-.01-.017-.018-.028-.011-.018-.012-.02-.009-.015-.012-.019-.01-.016-.021-.033-.008-.013-.013-.021-.008-.013L13.6,136.3l-.008-.013-.013-.02-.008-.013-.013-.021-.006-.009-.026-.041-.007-.011-.014-.022-.006-.01-.026-.042-.006-.009-.013-.021-.008-.012-.014-.022h0l-.031-.05-.005-.008-.015-.024,0-.008-.048-.077,0-.006-.049-.079,0,0-.017-.027h0l-.051-.083,0,0c-.292-.473-.579-.948-.862-1.427ZM4.981,111.666A86.644,86.644,0,0,0,8.788,122.75l-1.843.776A88.274,88.274,0,0,1,3.05,112.185ZM0,88.45l2,.012Q2,88.731,2,89a88.208,88.208,0,0,0,.71,11.168l-1.984.254Q.6,99.4.489,98.381v0l-.014-.135v-.006l0-.031V98.2l-.01-.1v0l0-.028v-.01l0-.027v-.011l-.009-.09v-.01l0-.026v-.014l0-.025v-.013L.426,97.76v-.015l0-.023,0-.016,0-.023,0-.016-.008-.082,0-.016,0-.022,0-.018,0-.022,0-.018,0-.033,0-.024,0-.02,0-.02,0-.02,0-.02,0-.019,0-.025,0-.022,0-.031,0-.018,0-.023,0-.018,0-.024,0-.017,0-.031V97.11l0-.033v-.016l0-.025V97.02l0-.027V96.98l0-.04v-.007l0-.033v-.015l0-.026v-.015l0-.029V96.8l0-.04v-.007l0-.033v-.013l0-.029v-.013l0-.031v-.01l0-.041v-.008l0-.033v-.013l0-.029v-.012l0-.035V96.45l0-.042v0l0-.036v-.011l0-.032v-.009l0-.041h0l0-.043v-.006l0-.035v-.01l0-.035v-.007l-.007-.086v0l0-.038V96l0-.037v0l-.007-.087v0l0-.039v-.007l0-.04h0L.248,95.7v0l0-.038v-.007l0-.041h0L.235,95.52v-.006l0-.037V95.47l-.009-.128v-.005l0-.038v-.005l-.009-.13v-.005l0-.039v0L.2,95.028h0l0-.042v0l0-.04v0L.189,94.85v0l0-.041V94.8l0-.04v0l-.006-.087v0l0-.04v0l0-.042h0l-.005-.088v0l0-.04v0l-.008-.131v0l0-.041v0l-.008-.131v0l0-.041v0l-.007-.131v-.005l0-.039v0l0-.088h0l0-.042v-.006l0-.04v0l0-.089h0l0-.042v0L.11,93.464v0l0-.041v0l0-.042h0l0-.088v0l0-.04v0l-.006-.131V93.1l0-.038v-.006l-.006-.13v-.006l0-.038v-.005l0-.087v0l0-.041v-.006l0-.038V92.7l0-.087v0l0-.038v-.05l0-.087V92.34l0-.086v-.093l0-.086V91.8h0v-.138l0-.086v-.094l0-.086V91.3l0-.086v-.138h0v-.816c0-.028,0-.056,0-.083V89.9c0-.014,0-.028,0-.042v0c0-.012,0-.024,0-.037v-.042c0-.006,0-.008,0-.014v-.029c0-.006,0-.006,0-.012s0-.027,0-.041,0-.007,0-.01V89.64s0-.011,0-.014V89.6s0-.011,0-.014,0-.022,0-.032,0-.006,0-.009v-.051c0-.011,0-.021,0-.032s0-.008,0-.014,0-.019,0-.029,0-.011,0-.014,0-.021,0-.032v-.01q0-.02,0-.04c0-.006,0-.007,0-.013v-.044c0-.009,0-.018,0-.027s0-.012,0-.015,0-.022,0-.032,0-.006,0-.009,0-.027,0-.041,0-.007,0-.013,0-.019,0-.029,0-.009,0-.015,0-.019,0-.029v-.013c0-.014,0-.028,0-.041v-.036s0,0,0-.005,0-.022,0-.031v0c0-.012,0-.02,0-.032v0c0-.1,0-.188,0-.284,0,0,0,0,0,0s0-.018,0-.027,0-.009,0-.013v-.017q0-.012,0-.024v0Q0,88.484,0,88.45Zm3.34-23.693,1.925.544A86.837,86.837,0,0,0,2.853,76.769l-1.98-.279A88.511,88.511,0,0,1,3.342,64.757ZM12.9,42.823l1.709,1.039a87.042,87.042,0,0,0-5.4,10.4l-1.833-.8c.2-.468.413-.937.625-1.4H8l.055-.12,0-.007.038-.082,0-.009.012-.025,0-.009.021-.045,0-.01.01-.022.007-.015.01-.021.011-.023.012-.026.01-.021.008-.018.01-.021.007-.016.016-.034.007-.015.011-.024.007-.015.016-.035,0-.009.013-.029.006-.013.014-.029,0-.009.018-.038,0-.009.015-.032,0-.008.018-.039h0L8.4,51.2l0-.007.017-.037v0l.019-.041v0l.018-.037,0-.006.038-.081v0l.06-.126h0A88.791,88.791,0,0,1,12.9,42.823Zm15.06-18.594,1.372,1.455a87.836,87.836,0,0,0-7.973,8.595L19.807,33.02A89.538,89.538,0,0,1,27.961,24.229ZM47.413,10.294l.936,1.768a87.332,87.332,0,0,0-9.966,6.171l-1.165-1.626.011-.008.013-.009.022-.016.024-.017.018-.013.015-.011.017-.012.018-.013.024-.017.019-.014.016-.011.019-.014.014-.01.031-.022.012-.009.021-.015.014-.01.025-.018.013-.009.026-.019.013-.009.023-.016.011-.008.032-.022.011-.008.024-.017.011-.008.029-.02.008-.006.03-.021L37.8,16.2l.024-.017.011-.008.033-.023.008-.006.027-.019.01-.007.033-.023h0l.034-.024.009-.006.028-.02.006,0,.035-.024.006,0,.029-.02.008-.006.07-.049.007-.005.03-.021.007,0,.036-.025,0,0,.032-.022.007-.005.072-.05,0,0,.034-.024,0,0,.037-.026,0,0,.034-.023.006,0,.073-.05,0,0,.034-.024,0,0,.074-.051,0,0,.074-.051,0,0,.036-.024h0l.076-.052,0,0,.075-.051h0l.037-.025h0l.076-.051,0,0q.289-.2.581-.391h0l.116-.077h0l.077-.051h0q.546-.362,1.1-.716h0q.394-.253.79-.5h0l.4-.248h0l.079-.049h0l.119-.074h0l.2-.122h0q.3-.183.6-.365h0l.12-.072h0l.08-.048h0l.12-.072h0l.08-.047h0l.12-.071h0l.081-.048h0l.121-.071h0l.283-.166h0Q45.75,11.174,47.413,10.294ZM69.878,2.059l.428,1.954A86.636,86.636,0,0,0,59.054,7.29l-.688-1.878Q59.49,5,60.628,4.618h0l.063-.021h0l.06-.02.007,0,.056-.019.012,0,.016-.005.012,0,.026-.009.012,0,.016-.005.013,0,.024-.008.013,0L60.98,4.5,61,4.5l.018-.006.018-.006.013,0,.018-.006.015,0,.021-.007.012,0,.018-.006.01,0,.026-.009.01,0,.021-.007.008,0,.027-.009.01,0,.02-.007.009,0,.027-.009.008,0,.022-.007.008,0,.028-.009h0l.025-.008.008,0,.029-.009h0l.028-.009.007,0,.026-.008h0l.03-.01.005,0,.028-.009h0l.03-.01.006,0,.026-.009h0l.03-.01h0l.027-.009h0l.061-.02h0l.063-.02h0l.065-.021h0l.13-.041h0Q65.872,2.938,69.878,2.059ZM89,0V2c-2.366,0-4.755.1-7.1.286L81.738.292Q83.646.138,85.577.065h0l.141-.005h0l.112,0h.032l.109,0h.059l.082,0h.036l.08,0h.206l.081,0H86.6l.058,0h.064l.066,0H89Z" fill="#ec3d08"></path></svg>