<svg xmlns="http://www.w3.org/2000/svg" width="22.157" height="17.135" viewBox="0 0 22.157 17.135"><g transform="translate(-764.121 -5131.505)"><path d="M289.264,293.424l-1.733-1a4.531,4.531,0,0,0,.314-3.588,7.465,7.465,0,0,0-3.665-4.374c-3.2-1.632-7.1-1.361-10.547-1.121l-.139-2c3.519-.245,7.9-.549,11.595,1.335a9.53,9.53,0,0,1,4.674,5.587A6.431,6.431,0,0,1,289.264,293.424Z" transform="translate(601.057 4776.762) rotate(19)" fill="#ec3d08"></path><path d="M289.379,282.8a7.851,7.851,0,0,0-3.894-4.11l.851-1.81a9.873,9.873,0,0,1,4.9,5.168Z" transform="translate(601.057 4776.762) rotate(19)" fill="#ec3d08"></path></g></svg>