<svg xmlns="http://www.w3.org/2000/svg" width="11.233" height="27.593" viewBox="0 0 11.233 27.593"><g transform="translate(-1125.301 -421.503)"><path d="M30.285,338.1a14.531,14.531,0,0,1-2.223-6.818,31.269,31.269,0,0,1,.279-7.119c.1-.768.221-1.548.335-2.3.547-3.64,1.113-7.4.347-10.93l1.954-.425c.844,3.884.25,7.833-.324,11.652-.112.747-.228,1.52-.331,2.273-.527,3.9-.818,8.845,1.632,12.569Z" transform="translate(1104.578 111)" fill="#ec3d08"></path><path d="M20.724,331.735a41.4,41.4,0,0,1,1.909-12.806l1.908.6a39.407,39.407,0,0,0-1.817,12.188Z" transform="translate(1104.578 111)" fill="#ec3d08"></path></g></svg>