<svg xmlns="http://www.w3.org/2000/svg" width="67.083" height="51.83" viewBox="0 0 67.083 51.83"><g transform="translate(-1625.484 -661.344)"><path d="M224.9,431.091l-.42-1.955,7.362-1.58,7.073-1.518c11.9-2.554,25.4-5.449,35.955-13a31.958,31.958,0,0,0,5.727-5.1c5.422-6.3,7.329-14.956,9.012-22.594l1.953.43a102.286,102.286,0,0,1-3.279,12.32,34.385,34.385,0,0,1-6.171,11.148,33.919,33.919,0,0,1-6.079,5.425,63.8,63.8,0,0,1-17.637,8.527,192.46,192.46,0,0,1-19.062,4.8l-7.073,1.518Z" transform="translate(1401 276)" fill="#ec3d08"></path><path d="M246.209,437.174l-.342-1.971A61.773,61.773,0,0,0,275.4,421.323l1.3,1.521a64.1,64.1,0,0,1-30.49,14.331Z" transform="translate(1401 276)" fill="#ec3d08"></path></g></svg>