<svg xmlns="http://www.w3.org/2000/svg" width="202.929" height="203" viewBox="0 0 202.929 203"><path d="M101.5,0h2.373l.069,0h.216l.113,0h.185l.144,0h.178l.113,0h.169l.156.005h.039l.042,0,.042,0h0l.16.006h0l.042,0,.042,0,.039,0,.242.01.041,0h0q3.819.163,7.562.6l-.233,1.986A100.973,100.973,0,0,0,101.5,2V0Zm23.782,2.8q1.376.33,2.738.7h0l.043.011h0l.134.036.007,0,.037.01.009,0,.035.01.009,0,.039.011h0l.087.024.01,0,.032.009.013,0,.03.008.012,0,.032.009.011,0,.042.012.008,0,.034.009.014,0,.028.008.016,0,.025.007.018,0,.027.007.015,0,.04.011.016,0,.025.007.02.006.021.006.023.006.019.005.022.006.02.006.022.006.01,0,.053.015.015,0,.025.007.016,0,.024.007.016,0,.025.007.015,0,.094.027.01,0,.028.008.012,0,.029.008.01,0,.031.009h0l.144.041h.005l.035.01h0q3.622,1.042,7.129,2.343l-.695,1.875a99.094,99.094,0,0,0-11.246-3.42Zm22.453,8.316a101.361,101.361,0,0,1,10.33,6.092l-1.116,1.66A99.813,99.813,0,0,0,146.822,12.9l.912-1.78Zm19.872,13.359q1.423,1.222,2.8,2.5h0l.136.126h0l.135.126,0,0,.031.029,0,0,.1.094,0,0,.029.028,0,0,.03.028,0,0,.066.062,0,0,.028.026.006.006.027.025.006.006.1.092.007.006.026.024.007.007.029.027,0,0,.033.031,0,0,.03.028.007.007.025.024.008.007.027.025.006.005.064.061.007.007.025.024.009.009.023.022.009.009.026.025L171.5,28l.032.03.006.005.025.024.01.01.021.02.011.011.022.021.009.009.031.029.008.007.023.022.012.012.019.018.012.012.02.019.012.012.025.024.01.01.025.024.014.013.018.017.014.014.017.016.015.014.019.018.012.011.029.028.014.014.016.015.016.016.014.014.017.017.012.012.018.017.012.011.033.032.012.012.018.018.012.011.018.018.013.012.018.017.01.009.038.037.01.009.019.018.012.011.019.019.01.01.019.019.009.009.04.039.007.007.019.019.01.01.02.019.01.01.02.02.007.007.073.072,0,0,.023.023.006.006.022.022.007.007.1.1.006.006.023.022.005.005.1.1,0,0,.025.024,0,0,.133.132h0q1.637,1.626,3.2,3.325l-1.472,1.354a100.5,100.5,0,0,0-8.454-8.173ZM183.814,42.1h0l.026.036h0l.136.189h0l.082.114h0l.027.038h0l.108.152h0l.243.343h0l.108.153h0l.027.038h0l.106.151,0,0,.106.151h0l.107.153h0q2.885,4.15,5.358,8.591l-1.748.972a99.956,99.956,0,0,0-6.314-9.918Zm11.64,20.925q.406.991.792,1.993h0l.016.042h0l.05.129v0l.015.039,0,.006.014.037,0,.005.048.127,0,.006.013.035,0,.009.013.035,0,.007.016.041h0l.016.043v0l.014.037,0,.012.011.03,0,.012.011.03,0,.011.013.035,0,.007.015.04.005.014.01.027.006.016.01.025.006.016.01.026.005.014.012.033,0,.008.015.04,0,.013.01.027.006.017.009.024.006.017.009.024.006.017.011.029.008.021.011.029.007.018.009.023.007.018.008.023.007.019.008.022.007.018.01.027.01.026.009.026.007.018.008.021.008.02.008.021.007.019.008.023.006.017.013.036.007.019.009.024.008.021.007.02.007.02.007.02.008.021.007.02.007.02.008.022.013.036.007.02.008.021.007.018.008.022.006.018.008.023.006.016.03.084.006.017.008.023.006.017.008.023.006.016.009.025,0,.013.031.088.005.015.009.025.005.014.009.025.005.014.009.025,0,.014.019.053,0,.009.009.025.005.015.009.025.006.016.008.023.006.018.008.022.006.017.016.045,0,.014.008.023.007.018.008.022.006.017.008.023.006.017.008.023,0,.014.017.049,0,.013.008.023.006.017.008.024.006.017.008.022.007.019.008.022.006.018.014.039.007.019.008.022.007.019.008.022.006.018.008.023.006.018.007.022.01.03.009.026.007.022.007.021.007.019.007.021.007.02.007.02.007.022.007.02.013.038.007.02.007.021.007.02.007.022.006.019.008.022.006.019.008.025.006.016.013.039,0,.013.009.028.005.016.009.026.006.016.009.027,0,.013.011.033,0,.009.014.041,0,.01.01.031,0,.014.009.028,0,.015.009.028,0,.013.013.039v0l.014.043,0,.008.011.033,0,.013.01.03,0,.013.011.032,0,.009.028.085,0,0,.012.037,0,.009.011.034,0,.009.012.037,0,.005.029.087v0l.013.039,0,.007.012.037,0,.006.043.131h0l.014.043v0l.013.041v0q.706,2.164,1.316,4.369l-1.928.533a99.1,99.1,0,0,0-3.8-11.123ZM201.84,86.1q.424,2.786.7,5.62h0l0,.04h0q.013.14.026.28h0l.018.2h0l0,.038v0l0,.037v0l0,.037h0l.014.158v0l0,.035v.008l0,.034v.007l0,.035v.005l.013.152v.007l0,.032v.011l0,.031v.012l0,.03v.011l0,.031v.007l.006.073h0l0,.029v.014l0,.028v.014l0,.029v.015l0,.027v.017l0,.027v.015l.007.091,0,.02,0,.022,0,.021,0,.022,0,.021,0,.023,0,.021,0,.023,0,.024v.019l0,.042v.015l0,.03v.016l0,.028v.017l0,.028v.016l0,.029v.015l0,.035v.008l0,.044V93.9l0,.034v.013l0,.031V94l0,.032v.013l0,.032v.013l0,.039v.005l.006.09v.01l0,.035v.012l0,.033v.011l0,.036v.009l.009.138h0l0,.043v.007l0,.039V94.6l0,.041v0l.012.186h0l0,.046h0q.1,1.575.155,3.163l-2,.067A100.435,100.435,0,0,0,199.862,86.4Zm-1.187,23.769,1.993.166,0,.045v.008l0,.036v.012l0,.034v.011l0,.036v.01l-.008.09v.01l0,.034v.016l0,.027,0,.018,0,.027,0,.018,0,.028v.016l0,.04v.013l0,.034,0,.018,0,.025,0,.021,0,.022,0,.022,0,.021,0,.023,0,.02,0,.024v.007l-.005.06v.016l0,.026,0,.018,0,.025,0,.018,0,.026,0,.017,0,.027v.014l-.009.1v.01l0,.03v.013l0,.029v.014l0,.03v.01l-.014.15v0l0,.035v.007l0,.035v.005l0,.037h0l-.016.158v0l0,.036v.006l0,.036v0l-.024.237h0q-.517,5.011-1.512,9.871l-1.96-.4A99.83,99.83,0,0,0,200.653,109.871Zm-4.7,22.995,1.9.63-.112.335v0l-.012.036h0l-.048.141,0,.009-.01.028,0,.013-.009.027,0,.011-.032.093,0,.011-.009.026,0,.014-.008.025-.006.017-.008.023-.006.019-.007.021-.012.035-.008.023-.007.021-.007.02-.007.022-.006.019-.008.024-.006.017-.01.028,0,.013-.014.04,0,.012-.01.03,0,.013-.01.029,0,.014-.01.029,0,.012-.029.083,0,.009-.012.034,0,.011-.011.032,0,.01-.013.038v0l-.03.087v0l-.013.039,0,.006-.014.04v0l-.046.132h0l-.015.044h0q-1.685,4.769-3.823,9.311l-1.81-.851A99.205,99.205,0,0,0,195.956,132.866Zm-9.984,21.241,1.7,1.059q-.361.578-.729,1.15h0l-.025.038h0l-.076.118h0l-.024.037,0,0-.1.153,0,0-.023.035,0,0-.075.115,0,.006-.021.032,0,.006-.022.034,0,0-.05.076,0,0-.021.032-.005.008-.02.03-.005.008-.049.075,0,0-.022.033-.005.008-.02.03,0,.007-.024.036h0l-.026.039v0l-.022.034-.006.009-.018.027-.008.012-.018.027-.006.009-.049.073-.006.009-.017.026-.009.013-.016.024-.008.012-.019.029,0,.007-.024.036-.007.011-.016.025-.009.014-.015.023-.009.013-.017.026-.007.01-.024.036,0,.007-.019.028-.009.014-.015.023-.009.014-.015.023-.009.014-.019.029-.006.008-.022.033-.01.014-.014.021-.01.015-.014.021-.01.015-.016.024-.008.011-.023.034-.009.013-.015.022-.01.015-.014.021-.01.014-.015.022-.01.014-.016.024-.017.025-.014.02-.011.016-.013.019-.012.017-.012.018-.012.017-.013.019-.016.023-.018.026-.01.015-.013.02-.012.017-.012.018-.012.018-.012.017-.012.018-.015.022-.02.029-.011.017-.013.019-.011.017-.013.018-.011.017-.013.019-.009.013-.029.042-.007.01-.015.022-.009.014-.015.021-.008.012-.015.022-.007.011-.037.054h0l-.016.023-.007.011-.016.023-.008.012-.016.023-.007.011-.016.024v0l-.036.053-.007.01-.016.022-.008.012-.015.022-.009.013-.015.022-.005.008-.056.081-.007.01-.017.024-.007.009-.017.025,0,.007-.06.086,0,0-.019.027-.005.008-.018.026,0,.006-.082.117,0,.006-.018.025-.006.009-.018.026h0l-.064.09,0,0-.019.027,0,0-.02.028v0l-.086.122v0l-.021.03h0l-.087.123v0l-.02.028,0,0-.108.152h0q-1.654,2.317-3.433,4.535l-1.56-1.251A100.163,100.163,0,0,0,185.972,154.107Zm-14.684,18.315,1.4,1.425,0,0-.029.029,0,0-.065.064,0,0-.027.027-.008.008-.025.024-.007.007-.027.027,0,0-.031.031-.006.006-.024.023-.011.011-.02.02-.012.012-.019.019-.012.012-.024.024-.018.017-.017.016-.016.016-.014.014-.016.016-.013.013-.018.017-.009.009-.068.066-.008.008-.021.02-.008.008-.021.021-.006.005-.074.072,0,0-.022.022-.007.007-.023.022,0,0-.107.1h0q-1.468,1.411-2.99,2.762h0l-.141.125h0l-.028.024h0l-.111.1,0,0-.026.023,0,0-.109.1,0,0-.023.02-.008.007-.023.02,0,0-.078.068-.006.005-.022.02-.009.008-.021.019-.01.009-.021.018-.005,0-.044.039-.01.008-.02.017-.012.011-.019.017-.013.011-.018.016-.014.012-.033.029-.014.012-.016.014-.016.014-.016.013-.018.015-.015.013-.018.016-.014.012-.03.026-.013.011-.02.017-.014.012-.019.017-.014.012-.02.017-.013.012-.031.027-.006,0-.027.023-.012.01-.021.018-.012.01-.022.019-.011.009-.03.025,0,0-.033.028-.008.007-.025.022-.01.008-.025.021-.009.008-.03.026,0,0-.035.03,0,0-.03.026-.007.006-.026.022-.008.007-.03.025,0,0-.069.059,0,0-.029.025-.007.006-.03.026,0,0-.105.089,0,0-.034.029h0l-.107.09h0l-.035.029h0q-1.56,1.314-3.173,2.565l-1.226-1.58A100.447,100.447,0,0,0,171.288,172.422ZM152.739,186.81l1.031,1.714a101.208,101.208,0,0,1-10.623,5.566l-.822-1.824A99.579,99.579,0,0,0,152.739,186.81Zm-21.4,9.638.6,1.908q-1.664.522-3.353.989h0l-.178.049h0l-.039.011-.006,0-.041.011h0l-.133.036-.006,0-.038.01-.006,0-.04.011h0l-.089.024h0l-.042.011-.007,0-.036.01-.01,0-.035.009-.009,0-.039.011h0l-.044.012h0l-.041.011-.012,0-.031.008-.013,0-.029.008-.014,0-.032.008-.01,0-.042.011-.006,0-.036.01-.013,0-.03.008-.015,0-.027.007-.015,0-.028.007-.014,0-.042.011h0l-.038.01-.016,0-.026.007-.017,0-.026.007-.017,0-.027.007-.016,0-.033.008-.011,0-.039.01-.016,0-.026.007-.018,0-.024.006-.018,0-.024.006-.018,0-.03.008-.012,0-.041.01-.017,0-.025.007-.019,0-.022.006-.021.005-.022.006-.02.005-.022.006-.02.005-.039.01-.021.005-.02.005-.023.006-.018,0-.023.006-.019,0-.023.006-.019,0-.023.006-.01,0-.055.014-.013,0-.026.006-.016,0-.025.006-.017,0-.025.006-.014,0-.1.024-.01,0-.027.007-.014,0-.026.006-.015,0-.026.007-.014,0-.027.007-.011,0-.061.015-.007,0-.028.007-.013,0-.027.007-.015,0-.027.007-.013,0-.028.007-.009,0-.064.016h0l-.029.007-.012,0-.027.007-.014,0-.028.007-.013,0-.028.007-.01,0-.1.023-.014,0-.026.006-.016,0-.026.006-.015,0-.027.006-.013,0-.094.023-.012,0-.027.006-.015,0-.027.006-.014,0-.026.006-.015,0-.092.022-.013,0-.026.006-.016,0-.025.006-.015,0-.026.006-.015,0-.027.006-.007,0-.059.014-.012,0-.026.006-.016,0-.025.006-.017,0-.024.006-.018,0-.024.006-.019,0-.042.01-.019,0-.022.005-.02,0-.022.005-.019,0-.023.005-.02,0-.022.005-.022,0-.03.007-.029.007-.021,0-.022,0-.021,0-.021,0-.02,0-.023.005-.02,0-.022.005-.02,0L124,200.5l-.02,0-.023.005-.02,0-.023.005-.019,0-.024.005-.018,0-.029.006-.013,0-.042.009-.011,0-.032.007-.015,0-.028.006-.016,0-.028.006-.015,0-.032.007-.01,0-.044.01h0l-.042.009-.01,0-.033.007-.012,0-.032.007-.011,0-.037.008h-.006l-.089.019-.007,0-.037.008-.008,0-.038.008h-.007l-.042.009h0l-.136.029h0l-.042.009h0q-1.311.282-2.634.53l-.368-1.966A99.169,99.169,0,0,0,131.34,196.449Zm-23.069,4.325.134,2q-1.979.133-3.977.19h0l-.08,0h0l-.161,0h0l-.078,0H100.27q-1.94-.023-3.859-.118l.1-2c1.652.082,3.331.123,4.991.123C103.754,201,106.032,200.924,108.271,200.773Zm-34.906-3.806a99.241,99.241,0,0,0,11.455,2.641l-.333,1.972q-2.191-.37-4.349-.832h0l-.044-.009h0l-.137-.029h0l-.043-.009h0l-.04-.009h0l-.135-.029h0l-.041-.009-.008,0-.036-.008-.008,0-.038-.008h-.006l-.089-.02h0l-.039-.009-.011,0-.033-.007-.013,0-.032-.007-.011,0-.036-.008-.007,0-.043-.01-.008,0-.034-.008-.014,0-.029-.007-.015,0-.027-.006-.017,0-.027-.006-.016,0-.041-.009-.013,0L79,200.5l-.019,0-.023-.005-.021,0-.022-.005-.02,0-.024-.005-.019,0-.025-.006-.034-.008-.023-.005-.021,0-.021,0-.022,0-.02,0-.023-.005-.019,0-.024-.005-.015,0-.058-.013h-.006l-.026-.006-.015,0-.026-.006-.015,0-.026-.006-.014,0-.028-.007-.009,0-.1-.023-.01,0-.03-.007-.01,0-.031-.007-.009,0-.032-.007h-.006l-.146-.034h0l-.033-.008-.007,0-.035-.008h0l-.191-.046h0q-2.491-.6-4.934-1.317ZM51.8,187.716a99.506,99.506,0,0,0,10.51,5.268l-.789,1.838c-.6-.258-1.19-.517-1.785-.786l-.006,0-.032-.014h0l-.137-.062h0l-.032-.015,0,0-.17-.077-.006,0-.03-.014-.006,0-.131-.06-.007,0-.029-.013-.007,0-.03-.014,0,0-.1-.046h0l-.029-.014-.009,0-.028-.013-.009,0-.028-.013-.006,0-.095-.044-.007,0-.028-.013-.011-.005-.026-.012-.011-.005-.085-.04-.014-.006-.024-.011-.014-.006-.024-.011-.015-.007-.024-.011-.012-.006-.084-.039-.015-.007-.022-.01-.017-.008-.021-.01-.018-.009-.02-.01-.017-.008-.04-.019-.017-.008-.02-.01-.019-.009-.021-.01-.018-.009-.02-.009-.019-.009-.026-.012-.03-.014-.017-.008-.021-.01-.019-.009-.021-.01-.018-.009-.021-.01-.018-.009-.025-.012-.024-.011-.026-.012-.017-.008-.022-.011-.017-.008-.022-.011-.018-.008-.024-.011-.014-.007-.037-.018-.014-.007-.025-.012-.017-.008-.022-.01-.018-.008-.024-.011-.015-.007-.031-.015-.007,0-.038-.018-.016-.007-.023-.011-.018-.009-.021-.01-.016-.008-.025-.012-.014-.007-.038-.018-.01,0-.029-.014-.015-.007-.025-.012-.015-.007-.024-.012-.015-.007-.031-.015-.008,0-.038-.019-.013-.006-.027-.013-.013-.007L57,192.749l-.012-.006-.032-.015-.007,0-.04-.02h0l-.037-.018-.011-.006-.028-.014-.013-.006-.028-.014-.012-.006-.032-.016-.007,0L56.7,192.6l-.009,0-.03-.015-.012-.006-.028-.014-.012-.006-.03-.015-.01,0-.079-.039-.009,0-.031-.015-.011-.005-.03-.015-.01,0-.037-.018h0l-.041-.02h0l-.037-.018-.008,0-.031-.016-.01,0-.033-.016-.006,0-.081-.04-.006,0-.032-.016-.011-.005-.03-.015-.01,0-.037-.018h0l-.081-.041-.007,0-.034-.017-.006,0-.037-.018,0,0-.082-.042h0l-.038-.019,0,0-.036-.018,0,0-.123-.063h0l-.04-.02,0,0-.165-.084h0q-2.293-1.174-4.518-2.46Zm-18.8-14.055a100.416,100.416,0,0,0,8.987,7.582l-1.2,1.6q-.394-.295-.786-.593h0l-.035-.027h0l-.11-.084,0,0-.033-.025,0,0-.035-.027h0l-.072-.055-.007-.005L39.666,182l-.008-.006-.027-.021-.008-.006-.033-.026h0l-.034-.027-.01-.007-.025-.019-.012-.009-.023-.018-.012-.009-.026-.02-.009-.007L39.4,181.8l-.012-.009-.022-.017-.015-.012-.019-.015-.015-.012-.019-.015-.016-.012-.024-.019-.024-.019-.016-.012-.018-.014-.015-.012-.018-.014-.014-.011-.02-.016-.011-.008-.042-.033-.01-.007-.021-.017-.011-.009-.022-.017-.01-.008-.024-.019,0,0L38.9,181.4l-.007-.006-.024-.018-.009-.007-.024-.019-.007-.006-.113-.089,0,0-.028-.022h0q-3.676-2.9-7.069-6.122ZM17.985,155.61a100.229,100.229,0,0,0,6.973,9.467l-1.538,1.279-.005-.007-.022-.026-.008-.009-.021-.025-.007-.009-.022-.027-.006-.007-.087-.1,0,0-.028-.034h0a101.84,101.84,0,0,1-6.9-9.4ZM7.621,134.552a99.266,99.266,0,0,0,4.556,10.836l-1.794.883q-.907-1.841-1.74-3.724h0l-.075-.17v0l-.018-.041h0l-.056-.128h0l-.018-.041v0l-.018-.042h0L8.4,141.99v0l-.017-.04v0l-.073-.169,0,0-.017-.038,0,0L8.23,141.6v0l-.017-.04,0,0-.016-.038,0,0-.054-.126,0,0-.016-.038,0-.006-.071-.167,0-.006-.016-.037,0,0L7.973,141h0l-.017-.041,0,0-.016-.038,0,0-.053-.126,0,0-.016-.038,0,0-.017-.041h0l-.054-.128v0l-.016-.039,0,0-.071-.17v0l-.017-.04v0l-.071-.171v0q-1-2.428-1.877-4.917Zm-5.11-22.907a99.662,99.662,0,0,0,1.873,11.606l-1.952.435a101.34,101.34,0,0,1-1.911-11.84ZM.9,87.9l1.982.265a100.7,100.7,0,0,0-.873,11.726l-2-.032q.034-2.147.156-4.273h0l0-.04h0c0-.081.009-.16.014-.241v0l0-.038v0c0-.081.01-.158.015-.239v0l0-.035v-.007l0-.035v0c0-.067.008-.128.013-.195v-.006l0-.035V94.7l0-.035v-.007c0-.067.008-.126.013-.194v-.005l0-.034v-.009l0-.033V94.37l0-.033v-.009L.26,94.18v-.008l0-.033v-.01l0-.032v-.011l0-.031v-.009l0-.033v0L.28,93.9v-.007l0-.032v-.011l0-.03V93.8l0-.03v-.013l0-.03v-.011l.008-.1v-.012l0-.028v-.015l0-.028v-.016l0-.028V93.48l0-.029v-.012l.008-.1v-.012l0-.028v-.016l0-.027V93.24l0-.026V93.2l0-.026v-.015l0-.028V93.12l0-.058v-.017l0-.024,0-.019,0-.024,0-.02,0-.023,0-.019,0-.024,0-.02,0-.023,0-.022,0-.036,0-.027,0-.021,0-.022,0-.022,0-.022,0-.022,0-.021,0-.023,0-.022,0-.021,0-.024,0-.02,0-.041,0-.018,0-.026,0-.02,0-.025,0-.019,0-.024,0-.02,0-.024,0-.019,0-.028v-.015l0-.043V92.2l0-.036v-.016l0-.028V92.1l0-.029v-.015l0-.03v-.014l0-.032v-.012l.008-.088v-.01l0-.034v-.012l0-.032v-.013l0-.034v-.01l0-.037v-.008l.009-.09v-.006l0-.039v-.009l0-.036V91.5l0-.035v-.01l0-.038V91.41l.014-.136v0l0-.04v-.008l0-.039v-.005l0-.043h0l.014-.139h0l0-.044v-.005l0-.04V90.9l0-.041v0l.024-.23h0Q.722,89.257.9,87.9ZM6.871,64.714l1.864.725a99.1,99.1,0,0,0-3.6,11.189L3.2,76.13A100.708,100.708,0,0,1,6.871,64.714Zm11.263-21.13,1.642,1.143a99.873,99.873,0,0,0-6.135,10.029l-1.765-.941.006-.011.01-.019.01-.019.011-.02.009-.017.019-.036.008-.014.013-.024.009-.016.012-.022.009-.016L12,53.577l.008-.015.016-.03,0-.008.019-.036.009-.017.012-.021.009-.016.012-.023L12.1,53.4l.014-.026.007-.013.02-.037.006-.012.014-.026.008-.015.013-.024.008-.016L12.2,53.2l.008-.014.018-.033,0-.009.019-.035.006-.011.015-.027.007-.013.014-.026.007-.013L12.317,53l.005-.01.021-.038.005-.009.016-.029.007-.013.014-.026.007-.013.014-.026.007-.013.02-.037,0,0,.018-.034.007-.013.014-.025.008-.014.013-.024.008-.014.017-.03,0-.008.021-.038.006-.011.014-.026.008-.015.013-.023.009-.016.014-.025.007-.012.021-.037,0-.008.017-.03.007-.012.014-.026.007-.013L12.7,52.3l.006-.011.018-.033,0,0,.021-.038.006-.01.015-.027.008-.014.014-.024.008-.014.015-.028.006-.01.021-.038,0-.005.018-.032.007-.013.014-.026.007-.013.014-.026.007-.012.019-.033,0,0,.021-.037.008-.015.013-.023.008-.015L13,51.764l.008-.014.015-.027.006-.011.021-.037.007-.012.015-.027.008-.014.014-.024.008-.015.014-.025.008-.013.019-.034,0-.008.018-.032.008-.015.013-.022.01-.017.012-.022.009-.015.014-.024.008-.014.02-.036.008-.014.013-.023.009-.016.012-.022.01-.017.012-.02.01-.017.016-.028.011-.018.015-.026.009-.016.013-.022.009-.016.013-.022.009-.016.015-.026.006-.01.021-.036.009-.015.013-.022.01-.017.011-.019.01-.018.012-.021.009-.016.017-.029.013-.022.012-.021.01-.017.011-.02.011-.019.011-.018.011-.018.012-.02.018-.031.012-.02.012-.02.01-.016.012-.021.01-.016.012-.02.01-.017.011-.019.015-.025.017-.029.01-.017.012-.021.009-.016.012-.02.01-.017.012-.021.008-.013.027-.046.006-.01.013-.022.009-.016.012-.021.009-.015.013-.022.008-.014L14,50.029l.008-.014.013-.021.009-.015.013-.021.009-.015.012-.021.008-.013.027-.046.005-.009.014-.024.007-.012.013-.023.008-.014.013-.023.006-.011.048-.081.008-.013.014-.023.008-.013.014-.023.007-.012.051-.085,0-.006.015-.025.007-.012.014-.024.007-.012.014-.024.006-.009.051-.084.005-.009.015-.025.006-.011.015-.026,0-.008.051-.085.005-.009.015-.024.007-.011.015-.024.007-.011.015-.025,0-.006.052-.086.006-.01.015-.025.007-.011.015-.024.007-.011.053-.087,0,0,.016-.027.006-.009.016-.026,0-.007.075-.123,0,0,.017-.028,0-.007.017-.028v0l.057-.094,0,0,.017-.028,0-.007.017-.027,0-.008.075-.121,0-.007.017-.028,0-.006.018-.029v0l.058-.094,0,0,.018-.029,0-.006.018-.029,0,0,.077-.124,0-.007.016-.026.005-.008.076-.121,0,0,.018-.028,0-.006.018-.029,0,0,.06-.1h0l.018-.029,0-.006.018-.029,0,0,.079-.125,0,0,.018-.028,0-.007.018-.028,0,0,.059-.093v0l.018-.029,0-.005.018-.028,0-.005.078-.122,0-.005.017-.027,0-.007.017-.027,0-.006.056-.088,0-.005.016-.025.006-.01.016-.025,0-.007.077-.12,0-.006.017-.027.005-.008.017-.026,0,0,.057-.088,0-.006.017-.026.005-.008.017-.026,0-.007.057-.089,0,0,.016-.025.007-.011.015-.024.006-.009.017-.026h0l.059-.091,0-.006.017-.026.006-.009.017-.026,0-.005.057-.086,0-.007.016-.025.006-.01.016-.024.007-.011.015-.023.006-.009.032-.049.005-.008.014-.022.009-.014.014-.022.009-.013.015-.022.008-.012.051-.077.008-.013.014-.021.009-.014.014-.021.009-.014.014-.021.009-.014.028-.042.007-.011.014-.021.009-.014.013-.02.011-.016.013-.019.011-.017.012-.018.022-.033.011-.017L17,45.253l.011-.017.012-.018.012-.018.012-.018.012-.017.015-.022.017-.026.014-.02.011-.017.013-.019.011-.016.014-.02.01-.015.015-.023.009-.013.023-.034.009-.014.015-.022.01-.015.014-.021.01-.015.015-.022.009-.014.024-.035,0,0,.022-.032.007-.01.017-.025.008-.013.017-.024.008-.012.048-.072.007-.01.018-.027.008-.011.017-.026.007-.011.021-.031,0,0,.026-.038h0l.024-.036,0-.007.021-.03.006-.008.022-.032,0,0,.052-.076,0,0,.023-.033.005-.008.021-.03,0-.006.077-.112,0,0,.024-.035,0,0,.105-.152h0ZM34.026,25.673l1.33,1.494a100.506,100.506,0,0,0-8.307,8.322l-1.5-1.327.024-.027,0,0,.019-.021.009-.011.018-.02.01-.011.018-.02.009-.01.061-.069.01-.011.017-.019.011-.013.017-.019.01-.011.018-.021,0,0,.039-.043.01-.011.017-.019.011-.013.017-.018.011-.013.017-.019.013-.014.026-.029.014-.016L26,33.658l.012-.014.016-.018.011-.013.017-.019.012-.014.026-.029.015-.017.015-.017.014-.015.015-.016.014-.015.016-.017.013-.014.016-.017.013-.014.028-.031.013-.015.015-.017.013-.014.016-.018.014-.015.014-.016.018-.019.018-.02.019-.021.014-.015.015-.016.015-.016.014-.015.015-.016.014-.016.032-.035.009-.01.016-.018.012-.014.016-.017.014-.015.014-.016.015-.016.014-.016.021-.023.018-.02.016-.017.014-.016.015-.016.014-.015.016-.018.013-.014.023-.025.01-.01.024-.026.013-.014.016-.018.013-.014.016-.018.012-.013.02-.022.009-.01.028-.03.012-.013.018-.019.012-.013.017-.019.013-.014.018-.019.012-.012.028-.03.011-.012.019-.02.011-.012.018-.019.012-.013.019-.02.01-.011.029-.031h0l.028-.03.01-.01.02-.021.011-.012.019-.02.01-.011.022-.024.007-.008.029-.031.009-.01.02-.022.011-.011.02-.022.009-.01.022-.023.008-.009.029-.031.005-.006.025-.026.009-.01.02-.022.01-.011.02-.022.01-.01.059-.063.008-.009.022-.023.009-.01.022-.024.007-.008.061-.065,0,0,.026-.028.006-.007.025-.026.006-.007.093-.1,0,0,.027-.029,0-.005L28,31.5h0l.064-.067,0,0,.028-.03L28.1,31.4l.029-.03,0,0,.1-.1,0,0,.03-.032h0l.1-.1h0l.032-.033h0l.13-.135h0Q31.17,28.216,34.026,25.673Zm19.63-13.712.944,1.763a99.892,99.892,0,0,0-10.018,6.153l-1.145-1.639q1.131-.79,2.284-1.55h0l.155-.1,0,0,.034-.022.005,0,.114-.075,0,0,.033-.021.007,0,.034-.022,0,0,.076-.05.006,0,.031-.02.009-.006.031-.02.006,0,.036-.023h0l.075-.048.009-.006.028-.018.009-.006.029-.019.009-.006.073-.047.011-.007.026-.017.012-.008.025-.016.013-.008.029-.019.007,0,.036-.023.012-.008.025-.016.013-.008L46.772,16,46.785,16l.026-.016.011-.007.035-.022.013-.008.023-.015.016-.01.02-.013.017-.011.019-.012.017-.011L47,15.857l.031-.02.02-.013.019-.012.016-.01.021-.013.014-.009.022-.014.011-.007.079-.05.012-.008.022-.014.013-.008.021-.014.014-.009.022-.014.008-.005L47.4,15.6l0,0,.024-.015.012-.007.024-.015.009-.006.026-.016.007,0,.087-.054.006,0,.026-.016.009-.005.026-.017.007,0,.123-.077,0,0,.028-.018.007,0,.028-.018h0l.1-.06h0l.031-.019,0,0,.031-.019h0l.324-.2h0q1.335-.822,2.7-1.6h0l.164-.094,0,0,.031-.018,0,0,.127-.072.007,0,.028-.016.007,0,.029-.017h0l.093-.053.01-.006.024-.014.013-.007.024-.014.011-.006.084-.047.01-.006.023-.013.014-.008L51.771,13l.016-.009.021-.012.016-.009.035-.02.02-.011.017-.01.021-.012.017-.01.021-.012.017-.009L52,12.87l.015-.008.036-.02.009-.005.028-.016.013-.007.026-.014.013-.007.027-.015.011-.006.077-.043.008,0,.031-.017.009,0,.031-.017.009,0,.119-.066,0,0,.037-.02,0,0Q53.076,12.271,53.656,11.961Zm22.3-8.719.5,1.936A99.1,99.1,0,0,0,65.274,8.8l-.728-1.863A100.71,100.71,0,0,1,75.955,3.242ZM99.681.016l.035,2a100.676,100.676,0,0,0-11.725.893L87.722.927h0q.712-.1,1.426-.183h0l.277-.033h0L89.7.678h0l.045-.005h0l.229-.026h0l.042,0h0l.044,0h0l.183-.02h.005l.039,0h.007l.04,0h0l.182-.02h.006l.038,0h.009l.036,0h.009l.039,0h.006l.091-.01h0l.042,0h.008l.036,0h.012l.034,0h.011l.036,0h.009l.09-.009h0l.043,0H91.1l.037,0h.011l.034,0h.012l.033,0h.011l.041,0h0l.046,0h0l.039,0h.014l.029,0,.017,0,.027,0,.017,0,.028,0,.016,0,.031,0h.013l.043,0h.007l.036,0,.016,0,.046,0,.044,0,.045,0,.043,0,.029,0,.024,0,.033,0,.042,0,.023,0,.043,0,.043,0,.02,0,.024,0h.016L92.2.42h0l.043,0,.043,0,.027,0h.016l.027,0L92.4.4h.014l.106-.009.036,0,.042,0h.01l.032,0,.042,0h.006l.152-.013h0l.035,0h.007l.035,0h.006l.036,0h0l.2-.016h0l.038,0h0l.279-.022h0q2.9-.226,5.837-.289h.089l.161,0h.1Z" transform="translate(-0.013)" fill="#ec3d08"></path></svg>