<svg xmlns="http://www.w3.org/2000/svg" width="100.206" height="96.208" viewBox="0 0 100.206 96.208"><g transform="translate(-148.461 -5331.659)"><path d="M24.425,258.9l-1.934-.511a100.393,100.393,0,0,1,32.374-50.933c12.663-10.593,28.808-18.784,49.356-25.039l.582,1.913C84.518,190.5,68.6,198.57,56.149,208.988A98.376,98.376,0,0,0,24.425,258.9Z" transform="translate(76.561 5185.198) rotate(-16)" fill="#ec3d08"></path><path d="M29.057,226.874l-1.722-1.017c5.532-9.364,11.457-16.2,18.113-20.9.693-.489,1.414-.972,2.112-1.438,3.037-2.031,6.177-4.132,7.7-7.271l1.8.873c-1.759,3.627-5.128,5.881-8.387,8.061-.688.46-1.4.936-2.071,1.41C40.181,211.125,34.442,217.758,29.057,226.874Z" transform="translate(76.561 5185.198) rotate(-16)" fill="#ec3d08"></path></g></svg>